<?xml version="1.0" standalone="no"?>
<!DOCTYPE svg PUBLIC "-//W3C//DTD SVG 20010904//EN"
 "http://www.w3.org/TR/2001/REC-SVG-20010904/DTD/svg10.dtd">
<svg version="1.0" xmlns="http://www.w3.org/2000/svg"
 width="1710.758366pt" height="1706.898065pt" viewBox="0 0 1710.758366 1706.898065"
 preserveAspectRatio="xMidYMid meet">
<metadata>
Created by potrace 1.12, written by Peter Selinger 2001-2015
</metadata>
<g transform="translate(-149.057051,1857.939099) scale(0.100000,-0.100000)"
fill="#000000" stroke="none">
<path d="M9439 18557 c-70 -28 -91 -43 -118 -87 -34 -56 -29 -123 14 -189 20
-29 47 -62 60 -73 50 -39 243 -166 262 -172 11 -4 30 -17 43 -31 20 -22 21
-25 6 -31 -9 -3 -23 -1 -31 6 -19 16 -184 41 -319 49 -167 9 -424 -13 -504
-44 -20 -8 -59 -18 -87 -24 -73 -14 -126 -35 -254 -99 -175 -87 -251 -171
-251 -276 0 -53 32 -122 61 -131 10 -4 19 -10 19 -14 0 -7 89 -37 200 -68 36
-9 71 -22 78 -28 42 -31 62 -57 62 -76 0 -29 -131 -160 -225 -225 -38 -26 -74
-52 -80 -56 -5 -4 -33 -25 -62 -46 -69 -51 -238 -199 -288 -253 -122 -133
-155 -170 -201 -224 -92 -107 -161 -204 -292 -411 -168 -264 -347 -677 -435
-1004 -8 -30 -25 -92 -37 -137 -12 -44 -26 -107 -31 -140 -13 -92 -38 -232
-54 -308 -8 -38 -17 -115 -20 -170 -13 -235 -27 -339 -48 -362 -11 -13 -26
-23 -32 -23 -7 0 -48 -18 -91 -40 -43 -22 -85 -40 -91 -40 -7 0 -13 -4 -13
-10 0 -5 -11 -12 -25 -16 -13 -3 -29 -12 -36 -20 -6 -8 -18 -14 -26 -14 -8 0
-33 -13 -56 -28 -74 -51 -104 -62 -139 -51 -47 13 -257 -8 -368 -37 -145 -38
-254 -119 -372 -279 -75 -99 -112 -172 -148 -291 -75 -241 -50 -514 65 -720
44 -78 147 -181 251 -250 106 -69 190 -147 270 -250 79 -101 148 -164 211
-194 40 -19 60 -21 132 -19 l85 4 53 -135 c29 -74 53 -139 52 -145 0 -5 -41
-29 -92 -53 -85 -40 -92 -42 -104 -26 -7 10 -13 25 -14 33 0 17 -34 69 -108
167 -55 74 -249 267 -326 325 -179 135 -353 241 -475 287 -19 7 -48 19 -65 26
-16 7 -55 22 -85 33 -30 11 -71 25 -90 32 -19 7 -53 18 -75 23 -22 5 -67 18
-100 29 -33 10 -82 19 -110 19 -27 0 -93 7 -145 15 -52 8 -138 15 -190 15
-105 0 -319 -24 -362 -41 -32 -13 -108 -92 -108 -113 0 -7 -6 -19 -14 -25 -7
-6 -16 -33 -20 -60 -4 -27 -11 -51 -17 -53 -6 -2 -15 -27 -20 -56 -4 -29 -15
-59 -23 -68 -10 -10 -16 -33 -16 -62 0 -35 -5 -52 -20 -65 -17 -14 -20 -29
-20 -96 0 -65 -3 -82 -17 -90 -14 -7 -18 -28 -21 -108 -2 -55 -10 -116 -19
-138 -16 -44 -35 -359 -37 -610 0 -196 22 -522 40 -568 8 -22 14 -73 14 -125
1 -65 6 -97 20 -127 12 -24 19 -62 20 -96 0 -30 5 -60 12 -67 6 -6 15 -39 19
-72 4 -34 14 -69 22 -78 8 -9 18 -37 22 -62 4 -25 14 -52 22 -62 8 -9 18 -40
22 -70 4 -30 15 -65 24 -78 9 -14 17 -36 17 -51 0 -15 6 -32 14 -38 8 -7 17
-27 20 -45 4 -19 13 -39 21 -46 8 -7 15 -21 15 -31 0 -11 9 -28 20 -39 11 -11
20 -26 20 -33 0 -17 48 -108 71 -133 11 -11 19 -25 19 -32 0 -6 8 -17 18 -24
54 -38 56 -100 12 -296 -22 -95 -3 -645 24 -720 14 -36 14 -53 5 -105 -18 -95
-22 -181 -10 -223 6 -22 14 -81 18 -132 4 -60 11 -99 20 -108 8 -8 18 -42 23
-75 5 -34 14 -67 19 -72 19 -19 12 -24 -42 -31 -28 -4 -61 -13 -72 -20 -11 -7
-36 -16 -55 -20 -19 -3 -57 -15 -85 -25 -78 -29 -116 -42 -170 -56 -66 -17
-164 -53 -260 -95 -11 -5 -45 -19 -75 -31 -190 -75 -676 -314 -720 -354 -8 -8
-26 -18 -40 -24 -14 -6 -37 -19 -51 -29 -15 -9 -55 -34 -90 -56 -109 -65 -159
-99 -159 -107 0 -4 -8 -10 -18 -13 -10 -4 -27 -14 -38 -24 -11 -9 -42 -33 -69
-51 -44 -31 -142 -107 -155 -121 -3 -3 -18 -16 -35 -29 -111 -84 -335 -308
-440 -440 -37 -47 -76 -93 -86 -104 -10 -11 -21 -29 -25 -39 -3 -10 -9 -18
-13 -18 -5 0 -14 -13 -21 -30 -7 -16 -16 -30 -21 -30 -4 0 -11 -9 -14 -21 -4
-11 -24 -47 -46 -79 -21 -33 -39 -62 -39 -65 0 -3 -16 -40 -35 -82 -71 -150
-107 -270 -139 -459 -20 -115 -20 -319 -1 -399 8 -33 14 -76 14 -95 1 -83 103
-342 184 -468 35 -53 94 -128 147 -186 48 -52 178 -156 196 -156 8 0 14 -4 14
-9 0 -5 14 -12 31 -16 17 -4 33 -13 35 -20 3 -7 20 -16 39 -19 18 -4 38 -13
45 -21 7 -8 20 -15 29 -15 9 0 40 -11 69 -25 30 -14 69 -25 88 -25 19 0 47 -8
61 -18 24 -15 59 -17 353 -17 280 0 333 2 385 17 33 10 93 18 135 18 47 0 99
8 138 20 37 12 92 20 130 20 41 0 79 6 97 16 17 8 68 19 115 24 47 4 103 15
125 23 22 9 63 16 90 17 28 0 63 7 80 16 16 8 59 17 95 20 36 3 81 12 100 19
19 7 63 16 98 18 34 3 74 12 87 21 14 9 58 19 102 22 43 4 83 11 90 16 7 6 47
14 90 19 43 6 88 17 100 25 13 8 47 14 80 14 36 0 75 8 102 20 27 13 65 20
102 20 35 0 79 8 109 20 32 13 74 20 116 20 41 0 77 6 97 17 18 9 71 20 120
24 48 4 94 12 102 19 8 7 59 14 117 17 57 2 121 10 143 18 22 7 88 16 146 19
59 4 129 13 155 22 131 43 1210 43 1305 1 20 -9 74 -19 120 -23 46 -4 94 -13
108 -21 14 -7 48 -13 74 -13 28 0 64 -8 87 -20 25 -13 59 -20 94 -20 36 0 60
-5 70 -15 9 -9 39 -19 68 -22 29 -3 61 -13 71 -21 9 -8 42 -17 73 -20 33 -3
58 -10 61 -18 2 -7 23 -16 45 -19 22 -4 49 -16 59 -26 11 -11 33 -19 54 -19
22 0 43 -8 55 -20 12 -12 33 -20 53 -20 21 0 36 -7 45 -20 9 -14 23 -20 50
-20 26 0 41 -6 50 -20 9 -14 23 -20 51 -20 25 0 41 -5 45 -15 3 -8 23 -18 45
-21 23 -4 46 -13 52 -20 6 -8 21 -14 33 -14 11 0 35 -9 51 -20 17 -11 38 -20
48 -20 11 0 30 -9 44 -20 14 -11 35 -20 45 -20 11 0 31 -9 45 -20 14 -11 34
-20 43 -20 10 0 23 -7 30 -15 7 -8 17 -15 22 -15 5 0 31 -10 59 -22 l50 -23
-8 -70 c-15 -132 -9 -423 11 -495 115 -427 457 -771 923 -929 231 -78 493
-101 718 -62 265 46 461 119 745 278 142 79 146 80 194 73 26 -4 51 -13 55
-19 5 -7 35 -16 68 -21 34 -4 72 -15 84 -23 13 -8 44 -18 69 -21 24 -4 50 -12
57 -17 7 -6 45 -15 85 -20 40 -5 90 -15 113 -23 22 -8 73 -18 114 -21 40 -4
85 -11 100 -17 14 -6 91 -14 171 -18 80 -5 159 -14 175 -20 43 -18 409 -19
450 -1 17 7 89 16 160 20 72 4 139 12 150 18 11 6 53 15 93 19 41 3 79 12 85
19 7 6 34 15 61 18 27 4 63 16 81 27 18 11 41 20 52 20 12 0 26 6 32 14 7 8
26 18 43 21 34 8 126 53 146 72 7 7 17 13 21 13 20 0 238 151 278 193 10 9 22
17 28 17 5 1 35 33 65 72 86 111 71 103 195 103 106 0 113 1 185 36 58 28 100
60 185 141 61 57 187 174 280 259 202 182 866 786 1115 1014 227 207 203 191
237 167 105 -73 232 -50 351 63 115 109 207 288 219 426 5 63 8 69 54 114 27
26 53 62 59 80 6 18 17 36 25 39 8 3 15 12 15 20 0 8 9 17 19 21 11 3 45 30
76 60 31 30 60 55 64 55 4 0 13 11 19 25 6 14 18 25 25 25 7 0 21 15 30 33 31
57 52 91 70 111 9 11 17 27 17 36 0 9 9 25 19 34 11 10 23 32 27 50 3 17 13
39 21 48 9 9 18 38 20 63 3 25 9 45 13 45 8 0 15 30 26 115 3 27 13 59 21 72
22 33 15 338 -8 373 -8 14 -17 51 -18 82 -1 32 -11 82 -22 113 -10 30 -19 68
-19 85 0 16 -4 30 -8 30 -5 0 -15 18 -22 40 -7 22 -19 45 -27 51 -7 6 -13 19
-13 29 0 9 -8 28 -17 41 -10 13 -27 42 -38 64 -41 83 -146 223 -236 314 l-93
95 -13 80 c-27 156 -90 300 -184 422 -77 100 -242 221 -378 278 -155 65 -357
106 -519 106 -140 -1 -363 -41 -567 -103 -431 -132 -551 -160 -700 -161 -140
-1 -140 10 5 134 78 68 91 81 145 150 45 59 119 184 130 222 4 13 13 32 19 43
7 11 16 34 20 50 4 17 13 44 21 60 47 108 92 414 82 560 -12 173 -26 292 -41
334 -9 24 -16 55 -16 70 0 14 -9 46 -20 70 -11 24 -20 52 -20 63 0 25 -58 169
-91 228 -5 8 -20 38 -34 65 -129 260 -348 519 -567 675 -27 18 -48 37 -48 42
0 4 20 45 45 91 24 45 65 129 90 187 25 58 50 114 55 125 33 69 150 404 150
429 0 7 6 26 14 42 8 16 17 49 21 74 9 56 18 68 60 76 43 8 110 65 136 116 32
63 141 347 195 508 26 80 49 146 49 148 1 1 49 -4 106 -12 352 -49 384 -38
531 197 72 114 102 151 224 272 128 127 145 148 187 231 28 57 53 129 67 190
56 243 -17 539 -181 734 -34 41 -71 81 -81 88 -10 7 -18 26 -18 41 0 22 28 55
146 172 80 79 154 158 164 174 37 60 45 149 31 373 -7 114 -18 236 -26 272 -7
36 -16 94 -20 130 -4 36 -12 76 -17 90 -5 14 -14 50 -19 80 -4 30 -19 91 -31
134 -19 67 -31 88 -73 133 -28 29 -60 53 -70 53 -11 0 -49 9 -83 20 -35 11
-85 20 -110 20 -26 0 -79 9 -117 20 -38 11 -83 20 -98 20 -16 0 -70 9 -120 19
-152 32 -208 42 -292 52 -44 5 -143 18 -220 29 -138 19 -465 39 -700 43 l-120
2 -65 130 c-73 144 -112 217 -121 225 -3 3 -21 31 -40 64 -19 32 -41 68 -49
81 -13 19 -60 95 -95 153 -24 40 -52 81 -95 138 -25 34 -52 72 -60 84 -8 12
-20 28 -25 34 -6 6 -33 40 -59 76 -27 36 -54 70 -60 75 -6 6 -24 28 -41 50
-73 98 -346 371 -479 480 -27 22 -56 47 -64 55 -8 8 -27 24 -42 35 -15 11 -54
40 -86 65 -67 51 -107 79 -179 126 -27 18 -55 37 -60 41 -33 25 -104 73 -110
73 -3 0 -33 18 -65 40 -33 22 -70 44 -84 50 -14 5 -44 22 -68 37 -58 37 -325
173 -340 173 -6 0 -19 6 -27 13 -15 12 -38 23 -171 79 -25 11 -56 25 -70 32
-14 7 -38 16 -54 20 -15 4 -35 14 -43 21 -8 8 -27 15 -41 15 -15 0 -37 6 -48
14 -11 8 -40 19 -64 26 -24 7 -53 18 -64 26 -11 8 -30 14 -41 14 -11 0 -33 9
-50 20 -16 11 -44 20 -60 20 -17 0 -46 8 -65 19 -19 10 -53 21 -74 25 -21 4
-48 13 -60 21 -12 7 -41 16 -65 19 -24 4 -56 13 -72 21 -15 8 -41 15 -56 15
-16 0 -38 6 -49 14 -11 8 -42 19 -70 24 -27 6 -67 17 -89 26 -22 8 -54 15 -70
16 -17 0 -40 7 -52 15 -12 8 -43 18 -70 22 -26 3 -59 11 -73 18 -14 7 -48 16
-75 20 -28 4 -61 13 -75 20 -14 7 -52 16 -85 20 -33 4 -71 13 -85 20 -14 7
-54 16 -90 20 -36 4 -76 12 -89 17 -13 5 -58 13 -100 18 -42 6 -114 17 -161
25 -166 29 -367 45 -535 44 -149 0 -177 -3 -226 -22z m500 -197 c80 -5 192
-16 250 -25 97 -15 141 -23 331 -59 36 -7 81 -18 100 -24 19 -6 55 -15 80 -21
25 -5 68 -15 95 -21 28 -6 73 -18 100 -26 28 -8 70 -19 95 -23 25 -5 59 -14
75 -20 56 -19 160 -49 195 -56 19 -4 40 -11 45 -15 6 -5 31 -11 58 -15 26 -4
50 -11 52 -15 3 -5 31 -14 63 -20 31 -7 62 -16 67 -21 6 -4 29 -12 50 -18 54
-13 133 -39 173 -57 18 -8 41 -14 50 -14 10 0 26 -6 37 -14 11 -7 34 -16 50
-20 17 -4 44 -13 60 -20 17 -8 62 -26 100 -41 39 -15 90 -35 115 -45 25 -10
65 -26 90 -35 25 -10 72 -30 105 -46 33 -15 67 -30 75 -33 8 -3 22 -10 30 -15
8 -5 67 -34 130 -66 63 -31 129 -65 145 -75 17 -10 55 -31 85 -47 30 -15 61
-33 68 -40 6 -6 21 -15 32 -18 11 -3 20 -11 20 -16 0 -5 5 -9 11 -9 10 0 81
-43 151 -91 15 -11 32 -19 38 -19 5 0 10 -4 10 -9 0 -5 8 -12 18 -15 10 -4 27
-14 38 -24 10 -10 57 -47 104 -82 254 -192 532 -462 719 -700 28 -36 60 -74
70 -85 9 -11 36 -47 57 -80 40 -59 123 -184 173 -258 41 -60 60 -90 71 -112 5
-11 25 -47 44 -80 19 -33 49 -87 66 -120 17 -33 42 -78 55 -100 13 -22 24 -50
25 -62 0 -21 -4 -23 -62 -23 -34 0 -98 -9 -143 -19 -44 -10 -102 -24 -130 -29
-143 -30 -313 -80 -402 -118 -17 -8 -36 -14 -41 -14 -6 0 -23 -6 -39 -14 -15
-8 -46 -22 -68 -32 -52 -22 -173 -82 -255 -128 -36 -20 -73 -39 -82 -42 -10
-4 -18 -10 -18 -14 0 -5 -9 -12 -21 -15 -17 -6 -139 -93 -200 -143 -158 -130
-248 -217 -332 -321 -27 -34 -57 -94 -57 -116 0 -11 -9 -31 -19 -44 l-19 -24
-48 20 c-27 11 -76 28 -109 37 -33 10 -74 22 -91 27 -18 5 -69 12 -115 15 -46
3 -102 7 -124 8 -68 6 -283 -12 -327 -27 -24 -8 -74 -25 -112 -37 -38 -13 -86
-33 -107 -44 -69 -39 -134 -79 -139 -87 -3 -4 -23 -20 -44 -34 l-38 -26 -67
69 c-39 41 -112 98 -181 143 -108 70 -296 170 -358 189 -15 5 -58 21 -97 35
-104 39 -235 78 -350 105 -319 75 -581 91 -915 57 -174 -18 -210 -24 -381 -63
-58 -13 -114 -24 -123 -24 -10 0 -39 -7 -65 -15 -25 -8 -75 -21 -111 -30 -36
-9 -92 -24 -125 -35 -33 -10 -121 -37 -195 -60 -74 -23 -143 -45 -152 -51 -10
-5 -23 -9 -30 -9 -7 -1 -31 -9 -53 -20 -22 -11 -48 -19 -57 -20 -9 0 -20 -4
-23 -10 -3 -5 -13 -10 -22 -10 -8 0 -30 -7 -49 -15 -19 -8 -49 -22 -68 -30
-19 -8 -40 -15 -48 -15 -8 0 -18 -4 -24 -9 -5 -5 -40 -21 -79 -36 -38 -14 -88
-35 -111 -46 -23 -10 -46 -19 -53 -19 -6 0 -11 -4 -11 -10 0 -5 -6 -10 -14
-10 -12 0 -202 -93 -266 -131 -22 -13 -138 -95 -167 -119 -7 -6 -18 -10 -25
-10 -7 0 -26 -9 -43 -20 -57 -38 -58 -35 -50 123 4 78 11 162 17 187 5 25 16
86 23 135 14 97 29 173 46 245 6 25 17 72 25 105 28 128 43 184 78 292 20 62
43 125 51 140 8 15 15 35 15 44 0 8 4 19 8 25 4 5 18 36 31 69 13 33 39 93 57
133 19 41 34 78 34 83 0 5 5 9 10 9 6 0 10 6 10 13 0 24 91 189 167 305 43 64
80 121 82 127 5 11 125 171 156 208 6 7 36 44 67 82 63 78 226 240 303 301 28
21 52 42 55 45 3 3 68 52 145 109 289 214 380 348 335 493 -14 43 -68 120
-104 147 -43 32 -118 70 -141 70 -13 0 -27 4 -30 10 -3 5 -28 12 -55 16 -53 7
-60 15 -35 36 9 7 21 18 28 24 12 10 61 34 164 80 17 8 37 14 45 14 7 1 31 8
53 16 22 8 85 27 140 41 184 47 519 41 697 -12 29 -9 78 -23 108 -32 30 -8 71
-22 90 -30 54 -23 168 -28 211 -10 57 23 92 77 92 140 1 79 -29 125 -123 190
-19 13 -64 44 -100 69 -36 25 -70 47 -75 49 -6 2 -56 34 -112 72 -55 37 -106
67 -112 67 -6 0 -11 3 -11 8 0 4 -14 16 -30 27 -16 11 -30 23 -30 28 0 10 224
9 399 -3z m6649 -3226 c37 -6 46 -12 62 -44 10 -21 24 -74 29 -119 6 -44 17
-107 25 -138 8 -32 17 -83 21 -113 3 -30 13 -98 22 -150 8 -54 16 -166 17
-257 l1 -162 -55 -56 c-30 -30 -58 -55 -62 -55 -4 0 -8 64 -8 143 0 78 -5 171
-10 207 -6 36 -15 126 -20 201 -5 74 -16 154 -24 176 -8 23 -17 63 -21 90 -4
26 -13 69 -21 94 -8 26 -19 69 -24 95 -5 27 -12 62 -16 78 -6 27 -5 28 17 23
13 -3 43 -9 67 -13z m-1572 -280 c45 -31 186 -141 464 -362 109 -86 120 -95
204 -167 39 -33 91 -76 116 -96 25 -20 57 -47 72 -60 14 -13 39 -35 55 -48 15
-13 51 -44 79 -70 28 -25 64 -57 81 -71 71 -59 79 -117 21 -165 -54 -46 -93
-32 -209 71 -36 32 -80 70 -96 84 -78 64 -182 151 -252 210 -43 36 -95 79
-116 95 -21 17 -43 35 -49 41 -6 5 -81 65 -166 133 -85 67 -163 129 -173 137
-11 9 -31 23 -46 32 -52 32 -149 117 -160 140 -16 33 -13 74 7 98 43 54 88 53
168 -2z m-2639 -530 c43 -9 92 -18 108 -21 32 -5 195 -62 207 -72 8 -7 22 -93
38 -231 15 -127 64 -373 100 -500 10 -36 22 -81 25 -100 4 -19 11 -39 15 -45
4 -5 13 -35 20 -65 7 -30 16 -59 20 -65 4 -5 12 -28 18 -50 20 -75 51 -150
134 -320 35 -72 145 -263 158 -275 6 -6 72 -98 84 -117 33 -56 -133 113 -174
176 -8 13 -20 29 -25 35 -6 6 -24 29 -40 51 -17 22 -40 51 -52 65 -13 14 -23
28 -23 31 0 10 -160 171 -195 197 -79 58 -116 82 -125 82 -5 0 -10 5 -10 10 0
6 -12 15 -27 21 -16 6 -56 24 -91 41 -89 42 -178 48 -296 18 -49 -12 -96 -28
-104 -36 -7 -8 -22 -14 -32 -14 -10 0 -25 -11 -34 -25 -9 -14 -23 -25 -30 -25
-8 0 -16 -7 -20 -15 -3 -8 -12 -15 -21 -15 -8 0 -15 -4 -15 -9 0 -5 -22 -33
-50 -62 -27 -29 -50 -58 -50 -65 0 -8 -9 -18 -20 -24 -11 -6 -20 -20 -20 -30
0 -11 -4 -20 -9 -20 -9 0 -41 -55 -41 -72 0 -4 -9 -17 -20 -28 -11 -11 -20
-29 -20 -39 0 -10 -6 -21 -14 -24 -7 -3 -16 -21 -20 -40 -4 -19 -13 -38 -21
-41 -8 -3 -15 -17 -15 -31 0 -14 -4 -25 -9 -25 -10 0 -61 -101 -61 -119 0 -6
-5 -11 -11 -11 -5 0 -17 -15 -25 -32 -30 -65 -47 -93 -61 -101 -7 -4 -13 -16
-13 -26 0 -9 -13 -33 -30 -51 -16 -18 -30 -40 -30 -47 0 -7 -7 -13 -15 -13 -8
0 -15 -7 -15 -15 0 -7 -6 -18 -13 -22 -6 -4 -25 -28 -42 -52 -37 -54 -114
-131 -132 -131 -18 0 -17 6 12 34 14 14 25 31 25 39 0 8 11 27 25 42 13 16 25
40 27 54 2 15 7 24 12 23 12 -5 26 18 26 44 0 12 6 27 14 33 7 6 19 32 26 56
7 25 17 45 21 45 5 0 9 10 9 23 0 28 24 97 37 106 5 3 14 45 20 92 7 48 18
108 26 135 19 63 41 178 63 329 25 172 32 705 10 837 -8 51 -18 134 -21 183
l-6 90 72 57 c111 87 238 145 389 178 66 14 275 11 357 -6z m-3132 -106 c48
-57 36 -89 -101 -270 -65 -86 -126 -166 -134 -178 -8 -12 -40 -54 -70 -95 -30
-40 -62 -82 -70 -95 -22 -32 -53 -74 -68 -91 -23 -26 -239 -318 -257 -347 -52
-84 -121 -161 -152 -168 -77 -20 -149 68 -113 137 10 17 109 151 173 233 12
15 38 52 58 81 20 29 123 168 230 310 107 141 201 267 209 278 42 63 172 226
183 230 6 3 28 6 49 6 29 1 42 -5 63 -31z m5191 -105 c33 -36 78 -87 102 -113
23 -26 52 -61 65 -76 12 -16 31 -38 42 -50 22 -23 94 -106 147 -169 18 -23 49
-59 69 -80 103 -112 145 -165 155 -191 23 -64 -41 -133 -112 -119 -35 6 -50
22 -394 420 -19 22 -37 42 -40 45 -3 3 -39 43 -80 90 -41 46 -85 94 -96 105
-12 11 -32 39 -44 63 -19 36 -20 47 -11 74 16 45 48 68 97 68 39 0 46 -5 100
-67z m-6782 -273 c3 -140 10 -273 15 -295 6 -22 15 -93 20 -157 5 -64 14 -125
20 -136 5 -10 15 -58 21 -107 6 -48 17 -100 25 -116 18 -33 20 -69 4 -69 -6 0
-30 14 -54 30 -24 17 -46 30 -50 30 -3 0 -21 11 -39 25 -39 30 -61 97 -76 240
-6 55 -17 136 -25 180 -8 44 -14 114 -14 155 -1 41 -6 140 -12 220 -14 179
-11 189 68 229 97 49 92 63 97 -229z m-355 -205 c6 -126 18 -257 26 -290 8
-33 15 -79 15 -101 0 -39 11 -86 46 -194 8 -25 14 -51 14 -57 0 -25 -48 -43
-145 -54 -133 -14 -196 -44 -238 -110 -16 -27 -31 -49 -32 -49 -5 0 -44 120
-61 186 l-17 70 23 32 c36 49 31 97 -30 262 -75 209 -103 266 -136 283 l-28
15 70 32 c38 18 107 50 154 72 47 21 92 43 100 48 8 6 25 15 38 20 13 5 46 21
75 34 82 37 102 44 108 37 4 -3 12 -109 18 -236z m-967 -102 c20 -19 28 -37
28 -62 1 -33 19 -86 135 -384 23 -59 50 -111 68 -128 27 -28 29 -34 28 -107
-1 -46 -11 -119 -27 -182 -30 -125 -41 -263 -25 -343 6 -33 31 -112 56 -177
59 -156 67 -196 55 -261 -12 -63 -16 -68 -62 -75 l-36 -6 -4 93 c-4 80 -13
118 -57 246 -74 217 -82 339 -35 513 8 30 17 96 21 145 5 74 2 106 -17 180
-37 146 -149 413 -214 508 -29 43 -32 53 -13 60 33 14 72 6 99 -20z m-216 -66
c99 -103 241 -439 251 -597 4 -56 0 -98 -16 -164 -28 -115 -43 -266 -35 -336
8 -71 26 -145 75 -298 45 -141 51 -224 21 -262 -37 -45 -96 -6 -206 133 -85
110 -199 217 -304 285 -158 102 -214 177 -268 358 -37 126 -37 290 0 417 46
154 97 250 193 363 70 81 174 151 227 154 6 0 33 -24 62 -53z m3619 38 c50
-24 69 -84 42 -132 -6 -12 -25 -46 -41 -75 -16 -29 -47 -82 -70 -118 -23 -36
-55 -87 -71 -115 -15 -27 -32 -52 -36 -55 -5 -3 -15 -21 -24 -40 -9 -19 -24
-48 -35 -65 -11 -16 -23 -37 -27 -45 -15 -34 -50 -73 -76 -87 -60 -31 -137 18
-137 87 0 21 5 42 10 45 6 4 17 21 26 38 18 39 48 92 72 128 26 41 155 256
171 287 8 15 20 33 28 40 7 7 13 18 13 24 0 15 49 71 74 85 28 16 42 16 81 -2z
m6900 -42 c127 -172 178 -431 125 -637 -31 -124 -61 -167 -216 -321 -145 -143
-175 -182 -235 -295 -45 -87 -110 -152 -147 -148 -40 4 -53 53 -41 149 17 143
38 205 100 300 33 49 73 118 90 152 17 34 33 64 35 66 2 2 19 -10 39 -27 63
-56 155 -62 200 -12 29 33 13 50 -47 48 -69 -2 -91 11 -118 68 l-22 47 30 76
c28 73 85 255 97 314 3 15 9 27 14 27 16 0 43 -72 58 -154 16 -91 32 -131 53
-131 35 0 35 123 0 239 -13 42 -31 72 -55 96 -34 33 -36 38 -30 80 12 87 17
110 26 110 5 0 25 -21 44 -47z m-9887 -127 c34 -90 62 -168 62 -174 0 -12
-158 -74 -170 -67 -6 4 -10 11 -10 16 0 5 -27 78 -60 161 -33 83 -60 158 -60
168 0 12 18 23 63 38 113 38 105 45 175 -142z m5748 -386 c59 -21 132 -64 147
-87 4 -7 15 -13 22 -13 8 0 15 -7 15 -15 0 -8 7 -15 15 -15 8 0 15 -4 15 -9 0
-5 18 -27 40 -49 22 -22 40 -44 40 -48 0 -5 18 -25 40 -44 22 -19 40 -39 40
-44 0 -8 15 -27 68 -83 12 -13 22 -28 22 -33 0 -6 8 -18 18 -28 42 -44 82 -95
82 -103 0 -5 7 -9 15 -9 8 0 15 -7 15 -15 0 -8 4 -15 9 -15 5 0 30 -20 55 -45
26 -25 49 -45 51 -45 2 0 17 -12 33 -27 16 -16 42 -37 58 -48 15 -11 35 -27
44 -36 9 -8 24 -18 33 -22 9 -3 17 -11 17 -16 0 -5 10 -13 22 -17 27 -8 80
-44 91 -61 4 -7 14 -13 22 -13 8 0 20 -8 27 -19 7 -10 23 -21 36 -25 12 -4 22
-12 22 -17 0 -5 7 -9 15 -9 8 0 15 -4 15 -10 0 -5 5 -10 11 -10 6 0 28 -13 49
-30 21 -16 43 -30 49 -30 5 0 15 -9 21 -20 6 -11 19 -20 30 -20 10 0 20 -3 22
-7 3 -8 25 -24 89 -67 49 -33 79 -84 81 -140 3 -61 -15 -79 -77 -78 -26 1 -52
5 -59 10 -6 5 -24 12 -41 16 -16 4 -50 17 -75 28 -25 11 -58 26 -75 34 -16 7
-56 18 -88 23 -31 6 -67 16 -79 22 -22 12 -151 32 -323 50 -114 12 -277 4
-349 -17 -27 -8 -66 -14 -85 -14 -20 0 -49 -7 -64 -15 -15 -8 -45 -17 -65 -21
-20 -4 -53 -15 -72 -25 -19 -11 -41 -19 -48 -19 -8 0 -41 -16 -73 -35 -33 -19
-62 -35 -65 -35 -4 0 -260 -151 -324 -191 -36 -22 -124 -59 -142 -59 -10 0
-31 -6 -46 -14 -37 -19 -254 -29 -372 -17 -190 19 -355 64 -498 134 -138 68
-150 86 -69 104 15 3 27 9 27 13 0 4 14 10 32 14 42 8 138 54 138 66 0 5 16
12 35 16 20 3 35 12 35 20 0 8 10 14 25 14 14 0 30 9 37 20 7 11 21 20 30 20
10 0 18 4 18 9 0 5 31 32 70 61 38 28 81 65 94 81 14 16 28 29 32 29 8 0 54
48 54 58 1 4 14 18 30 32 17 13 30 30 30 37 0 7 5 13 11 13 5 0 17 16 25 35 8
19 19 35 24 35 6 0 10 8 10 18 0 9 12 28 25 41 14 13 25 32 25 42 0 10 6 19
14 19 8 0 17 15 20 35 4 19 13 35 20 35 8 0 17 16 20 35 4 19 11 35 16 35 6 0
10 9 10 20 0 11 5 20 10 20 6 0 10 9 10 20 0 10 11 30 25 44 14 14 25 33 25
43 0 10 9 26 20 36 11 9 20 26 20 37 0 11 6 23 14 26 8 3 18 19 21 36 4 16 13
32 20 34 7 3 16 20 19 39 4 18 13 36 21 39 8 3 15 15 15 26 0 11 6 20 13 20 6
0 22 18 35 40 12 22 27 40 32 40 6 0 10 6 10 13 1 15 93 87 112 87 7 0 22 7
32 15 30 23 159 20 232 -5z m-5013 -145 c229 -60 365 -259 335 -490 -17 -128
-118 -269 -234 -328 -41 -21 -154 -57 -177 -57 -3 0 5 26 18 58 99 245 35 622
-134 787 -17 17 -31 33 -31 38 0 13 164 7 223 -8z m-303 -38 c8 -7 28 -27 45
-45 25 -28 27 -34 15 -42 -22 -14 -114 -12 -135 3 -17 13 -17 15 5 55 24 43
44 51 70 29z m-107 -229 c21 -20 28 -33 19 -36 -14 -4 -82 44 -82 59 0 19 33
8 63 -23z m246 4 c21 -39 42 -143 48 -239 6 -110 9 -105 -49 -117 l-28 -6 0
62 c0 87 -17 183 -44 250 -13 32 -21 60 -18 63 3 3 22 5 43 5 26 0 41 -6 48
-18z m-171 -267 c0 -33 -4 -71 -8 -85 -7 -23 -8 -23 -10 10 -2 19 -3 52 -4 73
-1 34 -2 36 -15 20 -13 -17 -13 -17 -7 0 3 10 6 23 6 28 0 6 4 8 9 5 5 -3 9 0
8 7 0 6 1 23 3 37 2 24 3 24 10 -5 4 -16 8 -57 8 -90z m891 -33 c133 -265 246
-424 436 -616 186 -187 402 -332 610 -408 90 -34 112 -40 150 -48 22 -4 54
-12 70 -18 33 -12 191 -31 300 -36 118 -6 470 40 510 66 6 3 28 9 50 13 22 4
45 11 50 15 9 6 47 18 113 35 12 4 22 11 22 16 0 5 7 9 16 9 9 0 30 6 47 14
91 41 126 58 167 81 50 28 80 32 80 11 0 -48 163 -164 290 -206 25 -8 52 -21
60 -28 37 -32 120 -83 253 -155 32 -18 75 -42 95 -54 35 -21 45 -26 75 -38 6
-3 37 -19 67 -35 30 -17 60 -30 66 -30 6 0 17 -6 23 -14 7 -8 23 -17 38 -21
14 -3 32 -13 40 -20 8 -8 23 -15 32 -15 10 0 24 -7 31 -15 7 -8 18 -15 24 -15
6 0 28 -9 49 -20 20 -11 46 -20 56 -20 11 0 23 -4 26 -10 3 -5 25 -14 48 -21
23 -6 49 -17 57 -24 8 -7 26 -15 40 -18 14 -3 50 -15 80 -27 30 -12 75 -26 99
-31 24 -5 49 -13 56 -19 7 -6 38 -15 68 -21 31 -5 69 -16 84 -24 16 -8 40 -15
54 -15 15 0 58 -10 95 -21 38 -12 132 -28 209 -35 77 -7 160 -16 185 -18 40
-4 41 -4 10 3 -33 8 -33 8 -7 10 40 2 117 22 117 31 0 4 24 15 54 24 30 10 60
24 66 31 6 8 25 17 41 20 16 4 32 12 36 19 5 6 18 16 30 21 61 28 253 219 274
272 5 13 13 23 19 23 5 0 10 7 10 15 0 8 4 15 9 15 5 0 12 13 16 29 3 16 13
32 21 35 8 3 14 13 14 23 0 10 8 32 18 48 10 17 24 49 32 73 7 23 17 42 21 42
5 0 11 17 15 38 4 20 12 48 19 62 8 14 16 43 20 63 6 31 11 37 24 30 9 -4 59
-8 111 -7 80 1 101 5 135 24 114 66 162 180 131 313 -18 77 -36 116 -78 170
-22 27 -26 37 -14 37 8 0 17 -4 20 -9 3 -5 16 -11 28 -14 13 -2 57 -14 98 -25
121 -33 343 -63 513 -69 154 -6 157 -6 151 -27 -4 -12 -11 -22 -15 -24 -5 -2
-9 -12 -9 -22 0 -9 -7 -23 -15 -30 -8 -7 -15 -17 -15 -23 0 -9 -25 -53 -103
-182 -7 -11 -14 -22 -17 -25 -3 -3 -21 -27 -40 -55 -19 -27 -39 -54 -45 -60
-6 -5 -24 -28 -40 -50 -138 -188 -451 -472 -635 -577 -30 -17 -71 -43 -90 -58
-19 -15 -47 -33 -62 -41 -15 -8 -77 -40 -137 -72 -61 -31 -119 -61 -129 -66
-35 -19 -109 -51 -117 -51 -5 0 -27 -8 -49 -18 -23 -10 -68 -29 -101 -41 -33
-12 -75 -29 -93 -37 -18 -8 -40 -14 -50 -14 -9 -1 -35 -9 -57 -20 -22 -11 -50
-19 -61 -20 -12 0 -39 -7 -60 -16 -22 -9 -64 -22 -94 -30 -91 -21 -142 -35
-195 -54 -27 -9 -79 -22 -115 -29 -64 -11 -118 -21 -222 -41 -29 -6 -91 -15
-138 -21 -47 -6 -109 -17 -139 -26 -30 -8 -99 -19 -154 -24 -55 -5 -114 -13
-131 -19 -17 -5 -101 -14 -186 -19 -86 -6 -180 -16 -210 -23 -76 -18 -979 -18
-1030 -1 -19 7 -96 17 -170 23 -74 6 -157 18 -184 26 -27 8 -69 14 -92 14 -23
0 -70 9 -105 19 -35 11 -88 22 -118 26 -30 4 -69 14 -87 21 -18 8 -48 14 -66
14 -18 0 -55 8 -83 19 -27 10 -84 29 -125 41 -86 26 -118 37 -213 74 -37 14
-74 26 -81 26 -7 0 -19 7 -26 15 -7 8 -20 15 -29 15 -9 0 -61 23 -116 50 -55
27 -103 50 -107 50 -4 0 -45 23 -92 50 -47 28 -89 50 -95 50 -6 0 -11 4 -11 9
0 5 -10 13 -22 17 -13 4 -37 17 -54 30 -17 13 -34 24 -37 24 -10 0 -165 117
-232 175 -33 29 -98 92 -145 140 -47 49 -96 100 -110 114 -26 27 -137 170
-155 200 -5 9 -22 32 -37 52 -16 20 -28 39 -28 43 0 5 -10 22 -22 39 -42 59
-161 293 -231 456 l-15 34 61 22 c216 76 365 234 412 437 7 35 13 70 13 78 -1
8 0 24 1 35 2 24 1 24 80 -133z m7956 -102 c0 -75 -1 -79 -20 -74 -29 9 -42
25 -50 60 -5 27 -1 36 27 63 18 17 35 31 38 31 3 0 5 -36 5 -80z m-11511 -81
c20 -12 36 -25 36 -30 0 -5 18 -16 40 -25 22 -9 40 -20 40 -25 0 -5 5 -9 11
-9 39 0 299 -241 299 -277 0 -7 9 -18 20 -25 11 -7 20 -16 20 -20 0 -10 63
-102 73 -107 5 -2 13 -13 18 -25 16 -35 32 -60 67 -104 32 -40 36 -42 89 -42
47 0 59 4 84 29 16 16 29 37 29 46 0 10 -17 45 -37 79 -46 74 -68 114 -82 144
-6 12 -15 22 -21 22 -6 0 -15 11 -20 25 -5 14 -14 25 -20 25 -5 0 -10 7 -10
15 0 8 -9 23 -20 32 -11 10 -20 23 -20 30 0 7 -9 17 -19 23 -11 5 -28 24 -38
40 -9 17 -25 33 -35 36 -10 3 -18 10 -18 15 0 5 -32 41 -72 79 l-72 70 55 0
c30 0 60 -5 66 -11 6 -6 45 -14 85 -17 41 -2 80 -11 89 -18 8 -8 39 -18 68
-24 29 -5 62 -17 74 -25 12 -8 33 -15 48 -15 22 0 102 -29 159 -59 59 -30 179
-97 200 -111 14 -9 57 -38 95 -63 93 -62 135 -96 231 -192 118 -116 307 -348
293 -359 -2 -1 -33 -20 -69 -41 -70 -42 -316 -219 -365 -264 -16 -14 -41 -34
-55 -44 -158 -110 -573 -548 -756 -799 -52 -71 -79 -111 -162 -243 -7 -11 -18
-31 -25 -45 -7 -14 -25 -44 -40 -68 -15 -24 -32 -53 -38 -65 -5 -12 -23 -47
-39 -77 -16 -30 -30 -61 -30 -67 0 -7 -4 -13 -10 -13 -5 0 -15 -20 -21 -45 -6
-25 -15 -45 -20 -45 -4 0 -14 -19 -20 -42 -7 -24 -18 -50 -25 -58 -6 -8 -20
-40 -29 -70 -46 -143 -81 -184 -96 -111 -4 19 -14 38 -23 43 -9 5 -16 22 -16
37 0 15 -9 36 -20 46 -11 10 -20 28 -20 40 0 12 -9 34 -20 48 -11 14 -20 36
-20 49 0 12 -9 37 -20 53 -11 17 -20 44 -20 60 0 17 -9 48 -20 70 -11 22 -19
56 -20 75 0 20 -6 45 -14 56 -8 11 -18 56 -22 98 -4 50 -13 83 -23 93 -12 12
-17 44 -21 120 -4 68 -10 107 -18 112 -9 5 -14 48 -17 135 -3 75 -11 146 -20
172 -19 57 -22 672 -3 707 6 12 14 69 17 127 6 112 10 118 58 94 24 -12 179
-168 203 -205 8 -12 22 -29 30 -38 8 -9 21 -27 28 -41 42 -81 62 -99 107 -100
66 0 109 62 93 134 -5 22 -16 48 -24 57 -8 8 -14 19 -14 23 0 4 -11 22 -25 40
-14 18 -25 37 -25 43 0 5 -44 53 -97 106 -110 109 -154 147 -167 147 -18 0
-125 75 -126 88 0 7 9 30 20 52 11 22 20 59 20 83 0 26 6 49 14 56 8 7 17 35
21 64 4 29 14 64 21 79 8 15 14 37 14 48 0 12 8 36 18 53 38 69 83 83 146 46z
m2866 6 c0 -2 -9 -29 -20 -59 -29 -76 -39 -82 -95 -57 -78 34 -70 61 30 100
48 19 85 26 85 16z m8265 -147 c-36 -122 -201 -547 -220 -567 -12 -12 -23 -12
-70 -2 -54 12 -55 13 -55 47 0 33 78 361 98 414 7 18 25 31 62 44 29 11 83 34
119 52 36 18 67 33 69 33 2 1 0 -9 -3 -21z m-8485 -58 c0 -7 52 -34 101 -53
30 -12 39 -23 58 -76 12 -35 20 -68 18 -76 -3 -7 -20 -15 -39 -18 -18 -3 -59
-14 -92 -26 -32 -11 -62 -18 -66 -16 -5 3 -14 22 -20 43 -7 20 -28 74 -47 120
l-35 84 38 39 38 39 23 -27 c12 -16 22 -30 23 -33z m8060 -86 c0 -9 -9 -50
-19 -92 -11 -43 -30 -128 -42 -190 -25 -129 -20 -167 31 -226 17 -18 30 -41
30 -50 0 -18 -104 -343 -126 -393 -8 -17 -14 -36 -14 -42 0 -6 -4 -19 -10 -29
-5 -9 -37 -82 -70 -162 -80 -187 -151 -330 -165 -330 -6 0 -28 9 -50 20 -22
11 -44 20 -49 20 -5 0 -17 6 -25 13 -9 7 -43 23 -76 36 -33 12 -75 29 -93 37
-18 8 -43 14 -55 14 -12 1 -33 7 -47 15 -14 8 -39 14 -56 15 -17 0 -53 7 -80
15 -27 8 -84 18 -126 22 -47 3 -78 10 -78 17 1 6 37 36 82 66 219 148 441 351
627 576 82 97 253 356 292 440 57 124 86 189 92 207 8 21 27 23 27 1z m-8195
-326 c115 -344 118 -372 47 -396 -73 -24 -82 -15 -176 181 -92 190 -200 446
-193 453 3 3 31 11 63 19 33 7 79 22 104 33 32 13 47 16 52 8 4 -6 51 -140
103 -298z m6256 44 c52 -5 104 -14 115 -19 10 -6 51 -16 89 -22 39 -7 85 -17
104 -23 31 -10 33 -12 27 -46 -3 -19 -10 -38 -15 -41 -5 -4 -13 -30 -17 -59
-4 -31 -12 -52 -19 -52 -13 0 -25 -30 -25 -65 0 -11 -9 -26 -20 -33 -11 -7
-20 -23 -20 -37 0 -14 -8 -33 -17 -43 -10 -9 -24 -30 -30 -45 -7 -15 -20 -30
-28 -33 -8 -4 -15 -12 -15 -19 0 -12 -40 -62 -100 -124 -35 -36 -106 -91 -118
-91 -5 0 -15 -7 -22 -15 -7 -8 -21 -15 -33 -15 -11 0 -35 -9 -53 -21 -31 -19
-49 -20 -255 -20 -189 0 -224 2 -246 16 -14 10 -53 19 -87 22 -33 3 -68 11
-76 18 -8 7 -37 17 -65 21 -27 4 -55 12 -62 19 -6 7 -30 15 -52 19 -23 3 -41
10 -41 15 0 5 -25 15 -55 21 -30 6 -54 16 -52 22 1 7 -21 16 -48 22 -28 6 -61
19 -75 29 -13 9 -39 17 -56 17 -19 0 -34 6 -38 15 -3 8 -12 15 -21 15 -8 0
-36 11 -62 25 -27 14 -70 34 -96 45 -27 11 -46 23 -43 28 3 5 58 12 123 15 65
4 134 11 153 16 102 27 249 99 400 196 36 23 81 51 100 63 60 37 223 113 254
119 17 3 40 11 51 17 11 5 63 18 115 28 101 18 245 18 431 0z m-5824 -71 c13
-25 27 -49 33 -55 5 -5 10 -16 10 -23 0 -8 9 -26 19 -41 10 -15 54 -83 96
-152 99 -160 179 -262 317 -406 154 -159 373 -334 553 -439 28 -17 59 -35 70
-42 11 -7 27 -15 35 -18 8 -4 22 -10 30 -15 8 -5 71 -37 140 -70 69 -34 137
-68 152 -76 14 -8 31 -14 38 -14 7 0 26 -6 43 -14 75 -34 130 -56 139 -56 5 0
28 -9 51 -19 23 -11 59 -22 80 -26 20 -4 40 -11 42 -16 3 -4 27 -11 53 -15 26
-4 58 -12 72 -19 14 -7 48 -15 77 -19 28 -4 64 -13 79 -21 15 -7 57 -17 93
-21 36 -3 81 -13 100 -20 19 -8 59 -17 90 -20 31 -3 81 -12 111 -19 30 -8 102
-17 160 -20 58 -4 146 -14 195 -22 137 -24 926 -24 1115 0 74 9 176 17 225 17
51 0 131 9 184 20 52 11 115 20 140 20 25 0 78 7 116 16 39 8 104 19 145 24
71 9 135 22 280 57 36 8 94 20 130 25 36 5 69 13 75 18 6 5 35 13 65 19 50 9
108 25 245 68 28 8 77 23 110 32 33 9 65 19 71 23 6 4 33 14 60 23 43 15 92
34 199 80 17 7 56 25 87 39 31 14 63 26 71 26 8 0 20 7 27 15 7 8 17 15 23 15
6 0 30 9 54 21 59 29 73 21 73 -40 0 -52 32 -204 55 -256 7 -17 15 -44 19 -62
4 -17 14 -37 22 -44 8 -6 14 -17 14 -24 0 -14 115 -242 134 -265 6 -8 25 -40
41 -70 15 -30 37 -68 48 -83 18 -27 18 -29 1 -48 -17 -18 -129 -112 -254 -211
-30 -24 -80 -60 -110 -81 -30 -21 -71 -50 -91 -65 -20 -15 -65 -47 -100 -71
-68 -47 -326 -238 -345 -256 -7 -5 -31 -26 -55 -45 -187 -150 -398 -379 -513
-555 -60 -91 -148 -267 -193 -385 -38 -99 -82 -257 -83 -297 -1 -10 -16 23
-34 72 -32 88 -89 210 -135 290 -25 43 -81 127 -90 135 -4 3 -31 37 -62 75
-57 71 -178 198 -214 225 -11 8 -45 36 -75 61 -164 137 -437 286 -724 394
-208 79 -290 104 -471 147 -44 10 -107 25 -140 34 -33 8 -78 19 -100 23 -22 5
-85 18 -140 30 -55 12 -122 25 -150 31 -90 17 -289 61 -327 71 -20 5 -56 13
-80 18 -23 5 -68 16 -98 25 -30 8 -120 33 -200 55 -158 43 -243 72 -248 84 -2
4 -11 7 -20 7 -20 0 -137 40 -169 58 -12 7 -27 12 -34 12 -23 0 -379 182 -461
235 -320 209 -565 421 -763 660 -75 91 -258 360 -327 480 -63 111 -138 262
-138 278 0 8 8 22 19 31 26 23 45 97 39 151 -3 25 -20 92 -38 149 -18 57 -30
111 -27 118 3 8 36 24 74 36 37 12 75 27 83 32 32 21 64 7 87 -39z m-659 -335
c71 -140 142 -203 232 -206 9 -1 43 -57 85 -143 39 -78 105 -198 149 -267 43
-69 84 -134 90 -145 17 -32 101 -139 210 -270 127 -152 273 -298 401 -400 55
-43 102 -82 105 -85 9 -11 173 -126 250 -176 105 -68 286 -163 445 -234 28
-12 73 -32 100 -45 28 -12 68 -28 90 -35 22 -7 45 -16 50 -20 6 -5 37 -16 70
-25 33 -9 69 -20 80 -25 26 -11 132 -44 225 -70 80 -23 132 -36 275 -69 50
-12 121 -28 158 -37 37 -9 91 -20 120 -24 29 -5 95 -18 147 -30 134 -31 167
-38 235 -50 33 -6 69 -15 80 -20 11 -5 52 -16 90 -24 152 -33 290 -70 410
-111 39 -13 104 -36 145 -50 41 -14 84 -30 95 -35 59 -27 136 -60 139 -60 19
0 324 -181 363 -215 6 -5 26 -21 45 -35 85 -64 208 -184 273 -265 22 -27 43
-52 46 -55 4 -3 27 -35 53 -72 64 -95 126 -223 175 -361 37 -106 39 -118 23
-123 -37 -11 -66 -30 -86 -57 -35 -47 -28 -205 26 -582 26 -188 63 -278 135
-328 l45 -32 -5 -50 c-5 -45 -16 -110 -47 -290 -11 -65 -35 -151 -57 -202 -7
-17 -13 -36 -13 -41 0 -6 -9 -27 -19 -49 -11 -21 -28 -56 -37 -78 -28 -64
-104 -195 -148 -255 -23 -30 -46 -62 -51 -71 -14 -25 -131 -154 -189 -208 -26
-25 -68 -65 -92 -87 -49 -47 -308 -244 -320 -244 -4 0 -19 -11 -33 -24 -15
-13 -72 -52 -128 -86 l-102 -62 -223 6 c-124 4 -255 14 -295 22 -39 7 -159 17
-265 20 -132 4 -209 11 -243 21 -27 9 -106 19 -175 23 -69 3 -135 11 -147 18
-12 7 -57 12 -101 12 -58 0 -92 5 -123 20 -30 13 -66 20 -114 20 -48 0 -84 7
-114 20 -28 13 -65 20 -107 20 -45 0 -75 6 -101 20 -25 13 -57 20 -93 20 -34
0 -64 6 -78 16 -12 8 -48 18 -80 21 -31 3 -67 13 -79 20 -12 8 -51 17 -85 20
-35 4 -72 12 -83 19 -11 7 -45 16 -75 19 -30 3 -61 12 -70 19 -8 8 -40 17 -70
21 -30 4 -62 13 -70 20 -8 7 -37 15 -63 18 -26 2 -56 11 -65 20 -9 8 -39 17
-65 20 -26 2 -56 12 -66 21 -10 9 -33 16 -51 16 -18 0 -41 7 -51 16 -10 9 -39
19 -63 21 -25 3 -51 12 -57 19 -6 8 -21 14 -33 14 -12 0 -39 9 -59 19 -21 11
-56 22 -77 26 -21 4 -44 13 -51 21 -6 8 -26 14 -44 14 -18 0 -43 9 -57 19 -13
11 -40 22 -60 26 -20 4 -39 13 -42 21 -3 8 -20 14 -40 14 -23 0 -44 8 -62 25
-15 14 -39 25 -53 25 -14 0 -37 9 -51 20 -14 11 -37 20 -51 20 -15 0 -37 8
-50 19 -13 10 -40 21 -61 25 -20 4 -39 13 -42 21 -3 8 -23 19 -44 25 -22 5
-45 17 -52 25 -7 8 -21 15 -32 15 -11 0 -34 11 -52 25 -18 14 -42 25 -53 25
-11 0 -28 9 -37 19 -10 10 -32 22 -51 25 -18 4 -36 13 -39 21 -3 8 -23 19 -44
25 -22 5 -45 17 -52 25 -7 8 -21 15 -32 15 -11 0 -33 11 -50 25 -16 14 -35 25
-42 25 -6 0 -19 9 -29 20 -9 11 -23 20 -31 20 -8 0 -21 13 -29 29 l-15 29 42
4 c22 3 88 6 146 7 126 2 184 9 219 27 14 8 42 14 61 14 20 0 44 6 55 14 11 7
39 17 62 21 23 3 47 13 53 20 6 8 24 17 40 20 16 3 34 13 41 21 6 8 18 14 26
14 8 0 28 11 45 25 16 14 35 25 41 25 7 0 18 9 25 20 7 11 19 20 27 20 8 0 22
11 31 25 9 14 20 25 25 25 12 0 106 96 169 172 29 34 59 67 66 71 8 4 14 13
14 19 0 6 14 27 30 47 17 20 36 43 43 51 6 8 20 30 31 50 10 19 21 37 25 40 8
7 96 141 105 160 4 8 18 33 31 55 14 22 33 59 44 81 11 23 24 45 30 48 6 4 11
15 11 25 0 10 9 30 20 44 11 14 20 35 20 47 0 12 9 33 20 47 11 14 20 35 20
45 0 11 9 31 20 45 11 14 20 37 20 50 0 14 9 36 20 50 11 14 20 38 20 52 0 15
7 36 15 47 8 10 15 28 15 39 0 11 9 37 20 58 11 20 20 49 20 65 0 15 8 43 19
62 10 19 21 62 24 95 3 33 12 74 21 90 10 19 16 55 16 99 0 37 9 107 21 155
18 75 20 110 17 266 -2 122 -7 187 -16 203 -7 12 -17 65 -21 116 -5 60 -14
102 -24 117 -10 13 -17 40 -17 60 0 20 -8 47 -19 60 -10 13 -22 40 -26 59 -4
19 -13 42 -20 50 -7 8 -16 26 -20 38 -4 13 -21 44 -38 69 -18 24 -38 55 -44
68 -7 12 -42 49 -77 81 -100 91 -117 104 -132 104 -8 0 -14 4 -14 9 0 5 -15
14 -32 22 -18 7 -36 18 -41 25 -4 7 -31 20 -60 30 -28 9 -61 23 -72 30 -11 8
-34 14 -51 14 -17 0 -42 8 -55 18 -15 12 -50 22 -88 26 -39 3 -72 13 -83 23
-14 13 -46 19 -126 24 -59 3 -120 12 -135 18 -37 15 -212 14 -240 -1 -12 -6
-72 -14 -134 -18 -81 -4 -117 -10 -130 -22 -11 -9 -45 -17 -86 -21 -44 -3 -72
-10 -80 -20 -7 -8 -34 -18 -62 -22 -27 -4 -57 -13 -65 -20 -8 -7 -36 -16 -62
-19 -25 -4 -52 -14 -58 -21 -7 -8 -22 -15 -34 -15 -11 0 -34 -9 -51 -20 -16
-11 -37 -20 -46 -20 -9 0 -28 -9 -42 -20 -14 -11 -34 -20 -44 -20 -10 0 -26
-9 -36 -20 -9 -11 -25 -20 -35 -20 -10 0 -25 -9 -35 -20 -9 -11 -23 -20 -30
-20 -8 0 -22 -9 -32 -20 -10 -11 -26 -20 -36 -20 -11 0 -24 -9 -31 -20 -7 -11
-20 -20 -30 -20 -9 0 -24 -8 -34 -17 -10 -10 -25 -22 -35 -28 -47 -27 -146
-101 -162 -122 -10 -13 -23 -23 -29 -23 -15 0 -97 -71 -218 -187 -135 -131
-150 -147 -195 -207 -11 -15 -26 -33 -32 -40 -7 -8 -35 -43 -62 -78 -27 -34
-57 -71 -66 -81 -9 -10 -20 -29 -25 -42 -5 -14 -14 -25 -19 -25 -5 0 -13 -10
-17 -22 -3 -13 -15 -31 -25 -41 -11 -10 -19 -29 -19 -42 0 -18 -5 -25 -20 -25
-19 0 -20 7 -20 160 0 113 4 170 14 197 8 21 17 79 21 128 3 51 13 100 21 112
8 12 14 37 14 55 0 18 7 47 16 63 9 17 20 52 25 79 4 27 15 56 23 65 7 9 17
36 21 61 4 25 14 52 22 61 7 9 17 34 20 55 3 22 9 41 13 44 3 3 17 28 29 55
29 63 69 145 82 165 5 8 14 26 20 40 19 44 33 67 148 245 25 38 34 51 56 78 6
7 25 35 44 62 31 46 135 177 171 216 8 9 26 32 40 50 44 59 382 392 465 457
44 34 102 82 129 105 79 68 304 222 471 322 106 64 220 125 235 125 3 0 29
-47 58 -104z m7407 -831 c55 -7 120 -19 145 -25 25 -7 70 -19 100 -26 30 -8
68 -21 83 -29 16 -8 33 -15 39 -15 9 0 149 -65 167 -77 7 -5 -109 -171 -185
-265 -106 -130 -196 -228 -211 -228 -7 0 -20 12 -30 28 -10 15 -23 33 -30 40
-7 7 -13 18 -13 24 0 6 -7 19 -15 28 -19 21 -125 228 -125 245 0 7 -6 18 -14
24 -8 7 -18 27 -22 44 -3 18 -11 37 -16 44 -13 16 -50 174 -44 190 7 16 44 16
171 -2z m739 -308 c151 -102 389 -383 477 -562 13 -27 29 -57 35 -65 6 -8 23
-44 38 -80 15 -36 31 -73 37 -82 5 -10 9 -23 9 -29 0 -6 6 -25 14 -42 41 -94
76 -353 76 -557 -1 -103 -21 -277 -38 -325 -6 -16 -20 -60 -32 -96 -27 -87
-122 -270 -171 -333 -42 -52 -94 -96 -116 -96 -16 0 -30 26 -38 75 -7 45 -40
162 -61 215 -7 19 -18 54 -24 77 -6 23 -17 54 -25 70 -8 15 -15 35 -15 44 0 8
-7 24 -15 35 -8 10 -15 25 -15 33 0 8 -9 32 -19 55 -58 124 -143 303 -151 316
-5 8 -25 47 -44 85 -20 39 -40 77 -45 85 -6 8 -36 60 -68 115 -31 55 -60 102
-63 105 -3 3 -11 16 -18 30 -7 14 -24 43 -37 65 -14 22 -28 47 -32 55 -4 8
-21 35 -37 60 -56 83 -126 202 -126 214 0 4 42 51 94 106 102 106 220 252 304
373 29 42 57 77 63 77 5 0 25 -10 43 -23z m-7734 -590 c19 -8 57 -18 85 -22
27 -4 62 -13 77 -21 15 -8 35 -14 45 -14 20 0 184 -81 252 -124 40 -25 136
-116 167 -158 58 -76 108 -189 125 -281 6 -34 15 -69 20 -79 17 -31 41 -347
35 -448 -11 -169 -25 -302 -36 -335 -6 -18 -15 -55 -19 -81 -15 -83 -77 -300
-111 -384 -12 -30 -29 -73 -37 -95 -15 -41 -146 -318 -163 -345 -6 -8 -21 -35
-34 -60 -13 -25 -45 -76 -70 -113 -25 -38 -46 -71 -46 -73 0 -7 -42 -64 -72
-98 -16 -17 -28 -34 -28 -38 0 -3 -6 -13 -12 -20 -7 -7 -45 -51 -85 -98 -39
-47 -93 -103 -119 -125 -26 -22 -58 -49 -69 -61 -49 -46 -212 -144 -241 -144
-8 0 -32 -9 -52 -19 -21 -11 -60 -22 -87 -26 -28 -4 -63 -15 -80 -23 -47 -24
-584 -24 -637 0 -20 9 -63 19 -95 23 -32 4 -76 15 -98 25 -22 9 -71 28 -110
40 -80 26 -176 71 -260 125 -100 62 -133 85 -144 99 -8 9 -17 16 -22 16 -4 0
-19 10 -32 23 -148 139 -161 152 -267 281 -38 46 -80 104 -80 110 0 3 -15 29
-33 58 -19 29 -44 76 -56 103 -12 28 -31 69 -42 93 -10 23 -19 49 -19 57 0 8
-9 32 -20 52 -11 21 -20 49 -20 63 0 14 -7 38 -15 53 -34 65 -44 380 -16 487
31 114 121 297 194 391 20 27 37 53 37 58 0 6 6 14 13 18 6 4 25 28 42 52 16
24 35 45 42 48 7 3 13 11 13 19 0 7 8 19 18 26 9 7 29 30 43 50 49 71 297 313
413 403 21 17 44 35 50 40 25 24 216 148 253 164 11 5 24 14 27 19 3 5 40 26
83 47 43 20 85 41 93 46 33 18 119 59 125 59 4 0 21 7 38 15 60 27 169 65 189
65 11 0 34 6 51 14 33 14 161 42 257 56 95 14 500 5 540 -13z m7130 -164 c25
-42 55 -92 67 -112 13 -20 26 -43 30 -51 7 -15 46 -76 60 -95 5 -5 14 -21 21
-35 7 -14 23 -43 37 -65 14 -22 30 -51 36 -65 6 -13 13 -27 17 -30 4 -3 21
-31 37 -63 17 -32 49 -93 72 -135 39 -71 48 -91 59 -117 2 -5 8 -17 13 -25 17
-26 81 -165 81 -174 0 -5 8 -27 19 -50 32 -70 84 -217 102 -290 5 -21 16 -51
24 -67 8 -15 15 -41 15 -56 0 -15 9 -57 20 -91 11 -35 20 -79 20 -97 0 -19 7
-64 17 -102 20 -83 22 -428 4 -508 -7 -27 -18 -86 -25 -130 -7 -44 -25 -110
-40 -146 -14 -36 -26 -75 -26 -86 0 -11 -9 -32 -20 -46 -11 -14 -20 -36 -20
-49 0 -12 -9 -36 -20 -53 -11 -16 -20 -39 -20 -51 0 -11 -9 -29 -19 -38 -11
-10 -23 -32 -27 -50 -4 -17 -15 -42 -25 -55 -11 -13 -19 -28 -19 -34 0 -6 -7
-19 -17 -29 -18 -21 -36 -49 -57 -94 -8 -17 -22 -36 -30 -44 -9 -7 -16 -16
-16 -21 0 -8 -82 -122 -123 -170 -121 -143 -286 -313 -372 -384 -27 -22 -58
-49 -69 -60 -12 -11 -33 -26 -48 -33 -16 -6 -28 -16 -28 -22 0 -5 -6 -10 -13
-10 -7 0 -27 -12 -45 -27 -60 -52 -90 -73 -106 -73 -8 0 -20 -9 -26 -20 -6
-11 -19 -20 -30 -20 -10 0 -31 -11 -46 -25 -15 -14 -35 -25 -45 -25 -10 0 -24
-8 -31 -18 -7 -10 -28 -24 -46 -30 -18 -6 -40 -18 -48 -27 -8 -8 -26 -15 -38
-15 -13 0 -31 -9 -41 -20 -10 -11 -28 -20 -41 -20 -13 0 -31 -8 -41 -19 -10
-10 -35 -21 -55 -25 -21 -4 -41 -13 -45 -20 -5 -7 -25 -16 -47 -19 -21 -3 -46
-13 -56 -22 -9 -8 -26 -15 -37 -15 -11 0 -32 -9 -46 -20 -14 -11 -40 -20 -60
-20 -20 0 -41 -7 -51 -19 -11 -12 -36 -20 -68 -23 -31 -3 -56 -12 -63 -22 -8
-10 -27 -16 -51 -16 -21 0 -52 -7 -68 -15 -16 -8 -54 -18 -85 -22 -31 -3 -72
-14 -91 -25 -21 -11 -55 -18 -87 -18 -34 0 -67 -7 -90 -20 -27 -14 -57 -20
-103 -20 -39 0 -74 -6 -85 -14 -12 -7 -62 -16 -120 -19 -55 -3 -117 -13 -137
-21 -27 -12 -71 -16 -155 -16 -101 0 -264 -17 -340 -35 -35 -8 -27 7 20 40
119 83 304 240 402 340 99 101 154 166 258 305 49 67 140 240 188 360 73 182
138 467 139 606 0 78 1 83 28 100 32 21 43 34 78 92 31 51 57 209 74 447 12
177 2 322 -25 375 -17 33 -68 70 -97 70 -22 0 -22 0 3 123 38 185 121 395 216
545 18 29 33 55 33 57 0 12 198 257 222 275 3 3 53 50 110 105 57 55 132 123
168 150 36 27 67 52 70 55 6 8 106 83 164 124 23 16 55 39 71 52 17 14 35 28
40 32 6 4 66 47 135 94 69 48 197 145 285 217 88 71 165 130 170 130 6 0 30
-34 55 -76z m2500 -1728 c263 -37 484 -153 607 -318 46 -62 120 -204 111 -213
-6 -5 -116 51 -139 72 -8 8 -21 14 -27 14 -6 0 -32 11 -58 25 -26 14 -52 25
-58 25 -7 0 -29 9 -51 20 -22 11 -49 20 -60 20 -11 0 -29 6 -40 14 -11 7 -36
17 -55 20 -19 4 -61 16 -93 27 -31 10 -74 19 -95 19 -20 0 -58 6 -83 14 -82
25 -393 39 -604 27 -104 -6 -206 -16 -225 -21 -19 -6 -79 -15 -132 -21 -54 -5
-116 -16 -139 -24 -23 -8 -56 -15 -74 -15 -17 0 -58 -9 -90 -20 -32 -11 -68
-20 -80 -20 -12 0 -44 -9 -69 -21 -68 -30 -78 -22 -74 53 l3 63 105 6 c183 12
324 42 633 135 421 127 569 149 787 119z m-4292 -307 c30 -30 -5 -569 -43
-655 -8 -17 -23 -34 -35 -38 -24 -8 -63 14 -84 48 -21 32 -93 600 -81 637 6
18 15 20 119 20 74 0 116 -4 124 -12z m4177 -148 c50 -10 114 -21 144 -25 30
-4 79 -16 110 -26 30 -11 61 -19 68 -19 16 0 120 -43 223 -92 36 -17 79 -37
95 -45 17 -8 48 -25 70 -38 22 -13 51 -29 64 -35 13 -6 42 -25 64 -42 l39 -31
-6 -61 c-16 -143 -72 -281 -164 -406 l-48 -65 -75 0 c-91 0 -99 -5 -289 -155
l-140 -111 -62 34 c-35 19 -219 114 -410 211 l-347 176 -114 0 c-172 0 -167 3
-629 -377 -221 -181 -271 -222 -464 -378 -82 -66 -151 -122 -154 -125 -3 -3
-30 -25 -60 -50 -30 -25 -86 -72 -125 -105 -38 -33 -128 -108 -200 -167 -71
-58 -209 -171 -305 -249 -97 -79 -207 -169 -245 -199 -39 -30 -111 -88 -161
-130 -50 -41 -159 -131 -243 -200 -163 -134 -203 -182 -222 -264 -17 -76 3
-533 26 -599 l16 -48 -28 -22 c-112 -87 -232 -201 -242 -228 -17 -50 -23 -122
-13 -150 10 -24 6 -31 -43 -79 -46 -46 -60 -53 -94 -54 -22 -1 -46 -7 -53 -14
-6 -6 -17 -12 -24 -12 -12 0 -24 -52 -24 -103 0 -24 -31 -59 -172 -201 -156
-154 -356 -332 -431 -381 -24 -15 -33 -16 -66 -6 -21 6 -46 11 -55 11 -10 0
-24 7 -32 15 -9 8 -28 15 -43 15 -15 0 -36 9 -45 19 -10 11 -35 22 -56 26 -22
4 -44 12 -50 20 -6 7 -27 16 -47 20 -20 3 -42 12 -49 20 -8 7 -31 16 -53 20
-22 4 -45 13 -51 21 -7 7 -27 16 -45 20 -19 3 -41 15 -51 25 -9 10 -29 19 -44
19 -15 0 -33 6 -39 14 -7 8 -28 17 -47 21 -19 3 -38 13 -41 21 -3 7 -12 14
-20 14 -13 0 -63 23 -113 51 -8 5 -40 20 -70 34 -30 14 -73 35 -95 45 -22 11
-45 20 -51 20 -6 0 -19 9 -29 20 -10 11 -27 20 -37 20 -11 0 -31 9 -45 20 -14
11 -34 20 -45 20 -10 0 -21 7 -24 15 -4 8 -16 15 -28 15 -12 0 -37 11 -56 25
-19 14 -41 25 -51 25 -9 0 -22 7 -29 15 -7 8 -18 15 -25 15 -8 0 -27 11 -43
25 -17 14 -37 25 -45 25 -8 0 -20 6 -26 14 -7 8 -25 18 -41 21 -16 3 -34 13
-41 21 -6 8 -20 14 -31 14 -11 0 -31 9 -45 20 -14 11 -34 20 -44 20 -10 0 -21
4 -24 10 -3 5 -53 33 -111 62 -149 75 -159 80 -162 90 -2 4 -15 8 -28 8 -13 0
-32 9 -41 20 -10 11 -27 20 -38 20 -11 0 -30 8 -43 18 l-24 18 28 60 c101 214
259 386 563 611 52 39 200 134 246 159 11 6 38 22 60 36 22 13 67 40 100 58
33 18 74 41 90 51 87 51 248 139 290 158 43 19 130 27 455 40 107 5 208 13
223 20 16 6 81 14 145 17 69 4 141 15 176 25 34 11 88 19 131 19 48 0 83 6
106 17 19 9 68 20 109 24 41 4 100 14 130 23 30 9 68 16 85 16 17 0 41 7 53
16 12 8 48 18 80 21 32 4 67 14 81 24 13 11 40 19 60 19 21 0 46 7 57 15 10 8
33 15 49 15 17 0 44 9 60 20 17 11 43 20 59 20 16 0 37 7 47 16 10 9 40 20 66
25 26 5 51 16 56 24 4 8 21 15 36 15 16 0 40 9 54 20 14 11 36 20 50 20 13 0
32 9 42 20 10 11 28 20 40 20 12 0 34 9 48 20 14 11 32 20 41 20 9 0 25 9 36
20 11 11 34 23 51 27 17 3 33 12 36 19 3 7 20 16 39 20 19 3 38 12 42 19 4 7
24 20 45 28 20 9 37 20 37 26 0 5 14 12 31 16 17 4 33 13 35 20 3 7 20 19 37
26 18 7 40 20 49 28 9 9 36 30 59 46 22 17 52 40 65 53 14 12 29 22 33 22 5 0
15 7 22 16 8 9 30 27 49 39 19 12 52 39 72 59 20 20 39 36 42 36 4 0 80 76
216 215 11 12 20 26 20 32 0 7 9 18 20 26 17 12 50 50 98 116 9 13 29 36 45
51 15 15 27 34 27 42 0 7 14 26 30 41 17 16 30 35 30 42 0 7 6 15 14 18 14 6
46 62 46 81 0 6 9 19 20 29 11 9 20 25 20 35 0 11 9 27 20 37 11 10 20 28 20
40 0 13 7 28 15 35 8 7 17 28 21 47 4 19 12 37 19 39 7 3 18 25 24 48 6 24 17
49 26 56 8 6 17 28 20 49 4 20 10 45 15 56 5 11 12 40 16 65 3 25 12 60 20 78
7 18 16 55 20 82 4 31 14 56 29 70 21 20 101 48 215 75 30 7 66 17 80 23 14 5
50 13 80 17 30 4 63 11 72 16 9 5 66 15 127 23 61 9 117 19 124 23 43 27 599
22 742 -7z m-12069 -155 c8 -19 19 -35 24 -35 6 0 10 -8 10 -19 0 -10 11 -30
25 -45 14 -15 25 -32 25 -38 0 -6 7 -20 17 -30 9 -10 21 -26 27 -37 93 -157
327 -396 454 -462 12 -7 22 -16 22 -21 0 -4 18 -15 39 -24 22 -8 42 -22 45
-30 3 -8 12 -14 19 -14 8 0 20 -6 26 -14 7 -8 25 -18 41 -21 16 -3 34 -13 41
-21 6 -8 18 -14 27 -14 14 0 66 -22 135 -56 16 -8 36 -14 45 -14 9 0 30 -7 45
-15 16 -8 46 -19 68 -25 21 -6 39 -15 39 -21 0 -5 12 -14 26 -19 37 -14 137
-81 152 -102 7 -10 19 -18 27 -18 7 0 20 -6 28 -14 8 -8 30 -21 51 -30 20 -8
36 -19 36 -25 0 -5 16 -15 35 -21 19 -6 35 -16 35 -21 0 -5 21 -19 46 -29 25
-11 52 -27 60 -35 9 -8 21 -15 28 -15 7 0 24 -9 38 -19 13 -11 36 -23 51 -26
14 -4 28 -13 30 -20 3 -7 18 -16 33 -19 15 -4 39 -16 52 -27 14 -10 32 -19 41
-19 9 0 27 -9 41 -20 14 -11 33 -20 43 -20 11 0 30 -9 44 -20 14 -11 34 -20
43 -20 10 0 23 -7 30 -15 7 -8 20 -15 30 -15 9 0 28 -8 41 -19 13 -10 38 -22
56 -25 17 -4 37 -14 44 -22 6 -8 19 -14 29 -14 9 0 29 -9 43 -20 14 -11 40
-23 59 -27 18 -3 44 -14 57 -25 13 -10 35 -18 48 -18 14 0 36 -9 50 -20 14
-11 35 -20 47 -20 12 0 30 -6 41 -14 11 -7 36 -17 55 -21 19 -4 44 -13 55 -21
11 -7 37 -16 57 -19 21 -4 42 -13 49 -21 6 -7 26 -16 45 -20 19 -3 51 -15 71
-25 21 -11 47 -19 58 -19 11 0 29 -6 40 -14 11 -7 36 -17 55 -21 19 -4 45 -13
57 -21 12 -8 37 -14 55 -14 18 0 44 -9 58 -20 14 -11 41 -20 60 -20 19 0 49
-9 65 -20 19 -13 47 -20 76 -20 27 0 51 -6 58 -14 6 -7 35 -16 64 -19 28 -4
70 -16 92 -27 21 -11 55 -20 75 -20 19 0 49 -9 65 -20 17 -11 47 -20 68 -20
21 0 55 -9 77 -20 22 -11 59 -20 82 -20 24 0 53 -7 65 -15 12 -8 50 -18 85
-21 35 -4 74 -12 88 -19 14 -7 55 -15 92 -18 37 -3 81 -13 97 -22 17 -8 54
-15 83 -15 29 -1 78 -9 108 -20 30 -11 75 -19 100 -20 25 0 70 -7 100 -15 30
-9 98 -20 150 -26 52 -5 127 -16 165 -23 39 -8 124 -17 190 -20 66 -4 147 -12
180 -20 39 -9 139 -15 288 -18 256 -3 249 2 107 -76 -47 -25 -122 -70 -167
-99 -46 -29 -85 -53 -89 -53 -3 0 -24 -13 -47 -29 -23 -16 -82 -55 -132 -87
-146 -95 -237 -169 -349 -282 -148 -151 -213 -237 -285 -379 -23 -45 -47 -85
-52 -89 -6 -3 -21 3 -33 15 -12 12 -28 21 -34 21 -7 0 -29 9 -49 20 -21 11
-43 20 -49 20 -6 0 -17 6 -23 14 -7 8 -27 17 -45 20 -19 4 -39 13 -45 20 -7 8
-24 17 -38 21 -15 3 -39 15 -54 26 -15 10 -36 19 -47 19 -11 0 -25 7 -32 15
-7 8 -28 17 -49 21 -20 4 -43 12 -51 19 -8 7 -34 18 -57 24 -24 7 -43 16 -43
21 0 5 -17 12 -37 16 -21 4 -45 13 -53 20 -9 7 -36 16 -60 19 -24 3 -47 10
-50 16 -4 5 -24 12 -46 16 -21 3 -48 13 -59 23 -11 10 -37 20 -59 23 -21 3
-46 13 -56 22 -9 8 -32 15 -51 15 -19 0 -47 9 -64 20 -16 11 -41 20 -55 20
-14 0 -42 9 -63 20 -20 11 -54 20 -74 20 -21 1 -56 9 -78 20 -22 11 -60 20
-85 20 -25 0 -63 9 -85 20 -28 13 -62 19 -111 20 -41 0 -87 7 -108 15 -20 9
-78 18 -129 21 -50 3 -117 13 -147 22 -48 15 -112 17 -495 17 -391 0 -446 -2
-497 -17 -39 -13 -90 -18 -167 -18 -83 0 -123 -5 -163 -19 -32 -12 -93 -21
-155 -25 -57 -3 -113 -10 -125 -17 -12 -6 -70 -15 -130 -20 -60 -4 -116 -13
-124 -20 -8 -6 -54 -14 -103 -18 -50 -3 -95 -12 -104 -19 -9 -8 -52 -16 -99
-19 -47 -3 -93 -12 -106 -20 -13 -8 -58 -17 -100 -20 -43 -3 -89 -12 -103 -19
-15 -7 -57 -16 -95 -20 -38 -4 -85 -15 -104 -25 -21 -12 -55 -19 -88 -19 -29
0 -65 -6 -80 -14 -15 -7 -61 -16 -102 -18 -45 -3 -86 -11 -100 -21 -14 -8 -56
-19 -95 -22 -38 -4 -82 -13 -96 -21 -14 -7 -59 -16 -100 -20 -41 -4 -83 -13
-94 -20 -11 -8 -45 -14 -82 -14 -39 0 -81 -8 -113 -20 -32 -13 -74 -20 -116
-20 -45 0 -77 -6 -104 -20 -30 -15 -59 -20 -120 -20 -51 0 -94 -6 -118 -16
-22 -9 -80 -17 -142 -20 -58 -2 -160 -12 -228 -21 -107 -14 -139 -15 -240 -4
-64 7 -161 17 -216 22 -56 5 -108 16 -119 24 -12 8 -34 15 -50 15 -16 0 -40 9
-54 20 -14 11 -33 20 -43 20 -9 0 -25 9 -35 20 -10 11 -26 20 -35 20 -10 0
-23 7 -30 15 -7 8 -18 15 -24 15 -6 0 -26 14 -44 30 -18 17 -36 30 -40 30 -25
2 -145 148 -190 231 -35 66 -82 179 -82 200 0 8 -7 27 -15 42 -17 33 -55 276
-55 357 -1 146 45 384 96 498 7 17 20 47 28 65 39 91 91 186 140 256 20 28 36
53 36 57 0 17 167 214 268 317 147 149 205 201 396 350 71 56 265 187 275 187
5 0 16 9 26 20 10 11 22 20 26 20 5 0 38 20 75 45 36 25 70 45 76 45 6 0 19 6
27 14 25 21 228 127 416 216 121 57 144 67 225 100 30 12 69 28 85 35 65 27
141 55 150 55 6 1 28 9 50 20 22 11 49 19 60 20 11 0 30 7 42 15 12 9 41 20
65 25 24 5 66 16 93 25 143 46 173 55 205 58 19 2 41 5 48 5 7 1 20 -14 28
-33z m13177 -450 c10 -11 25 -32 33 -47 8 -16 18 -28 23 -28 5 0 11 -10 15
-23 3 -13 15 -34 26 -47 11 -13 20 -31 20 -41 0 -10 7 -25 16 -34 9 -9 20 -34
25 -56 5 -23 16 -48 24 -56 8 -8 15 -30 15 -49 0 -19 10 -56 22 -82 21 -45 23
-60 23 -293 0 -169 -4 -250 -11 -260 -7 -8 -15 -34 -18 -59 -4 -25 -13 -58
-21 -75 -56 -121 -68 -145 -80 -155 -7 -6 -16 -22 -19 -35 -3 -13 -15 -29 -26
-35 -11 -6 -20 -16 -20 -23 0 -7 -13 -24 -29 -38 l-29 -25 -6 155 c-11 278
-25 298 -305 440 l-184 93 72 65 c97 89 126 139 126 224 0 62 2 69 45 127 98
134 155 254 191 401 l11 45 21 -35 c12 -19 30 -43 40 -54z m-1376 -483 c235
-121 580 -296 766 -391 379 -192 413 -212 428 -245 16 -35 -3 -63 -113 -159
-85 -75 -298 -266 -708 -637 -64 -58 -240 -217 -391 -355 -151 -137 -341 -310
-424 -385 -82 -74 -224 -203 -315 -285 -299 -271 -418 -377 -453 -401 -48 -32
-117 -48 -188 -41 -62 5 -134 42 -494 247 -55 32 -201 114 -325 182 -305 169
-866 485 -912 514 -39 25 -47 49 -28 84 9 17 97 92 415 355 304 251 462 381
915 749 102 83 253 207 336 276 487 403 788 646 843 682 41 25 53 28 132 28
l87 0 429 -218z m895 41 c11 -10 18 -30 18 -52 0 -32 -9 -45 -86 -118 -48 -46
-92 -83 -98 -83 -6 1 -44 18 -85 39 l-74 38 77 62 c156 128 207 151 248 114z
m307 -1295 l-12 -38 -42 39 c-33 31 -144 94 -216 124 -15 6 0 22 177 181 l99
89 3 -179 c2 -120 -1 -191 -9 -216z m-319 16 c22 -9 40 -20 40 -25 0 -15 -31
-10 -66 12 -54 33 -41 40 26 13z m-71 -38 c15 -8 33 -21 40 -29 20 -25 -24
-32 -75 -12 -47 18 -51 24 -32 43 16 16 33 15 67 -2z m-20 -112 c9 -8 -23 -34
-41 -34 -24 0 -98 37 -98 49 0 5 7 17 16 25 14 14 20 13 67 -10 29 -15 54 -28
56 -30z m271 19 c20 -25 22 -36 17 -103 -7 -97 -37 -183 -96 -273 -94 -144
-211 -200 -240 -116 -50 143 71 414 218 491 66 35 74 35 101 1z m-397 -84 c44
-23 57 -40 46 -60 -13 -24 -40 -24 -89 1 -45 23 -45 23 -28 50 14 22 39 25 71
9z m-53 -131 c46 -27 53 -40 35 -64 -12 -17 -15 -17 -54 9 -30 20 -41 34 -41
52 0 31 10 31 60 3z m-211 -57 c-19 -92 6 -189 62 -240 l31 -29 -43 -39 c-24
-21 -100 -90 -169 -153 -143 -130 -342 -311 -1173 -1064 -158 -144 -308 -272
-333 -285 -60 -32 -168 -35 -231 -7 -24 10 -40 23 -37 27 3 5 -1 7 -8 4 -14
-5 -140 65 -855 472 l-413 235 27 34 c80 105 6 301 -133 353 -30 12 -67 21
-82 21 -39 -1 -109 -35 -155 -76 -21 -20 -43 -32 -47 -27 -7 7 -22 323 -16
323 4 0 377 -209 491 -274 54 -32 187 -107 295 -166 107 -59 326 -181 485
-271 434 -243 388 -224 530 -224 193 1 191 -1 595 370 91 83 237 216 326 296
88 79 272 245 408 369 414 376 451 408 454 406 1 -2 -3 -27 -9 -55z m184 -75
c20 -16 30 -35 34 -64 3 -24 1 -42 -4 -42 -19 0 -71 66 -76 98 -8 39 6 41 46
8z m-3488 -758 c54 -43 62 -111 18 -155 -29 -29 -284 -256 -321 -286 -42 -34
-47 -34 -62 2 -6 17 -29 49 -51 72 -21 23 -39 43 -39 45 0 4 239 216 319 282
41 34 82 62 91 62 10 0 30 -10 45 -22z m244 -478 c147 -84 162 -95 145 -107
-10 -7 -25 -13 -35 -13 -9 0 -28 -9 -42 -20 -14 -11 -40 -20 -59 -20 -19 0
-58 -9 -88 -20 -51 -18 -76 -19 -320 -15 -253 5 -380 17 -380 37 0 18 28 18
71 -1 91 -42 126 -25 329 153 l154 136 31 -18 c16 -10 104 -60 194 -112z
m-4079 0 c13 -11 31 -20 40 -20 9 0 27 -9 40 -20 13 -11 33 -20 45 -20 13 0
25 -7 29 -15 3 -8 15 -15 27 -15 11 0 32 -9 46 -20 14 -11 32 -20 40 -20 8 0
26 -9 40 -20 14 -11 31 -20 38 -20 6 0 22 -9 35 -20 13 -11 30 -20 37 -20 8 0
26 -9 40 -20 14 -11 34 -20 43 -20 10 0 20 -7 24 -15 3 -8 14 -15 24 -15 10 0
27 -9 37 -20 10 -11 24 -20 32 -20 11 0 121 -51 173 -81 44 -25 179 -89 188
-89 6 0 12 -4 14 -8 2 -4 30 -20 63 -36 33 -15 67 -32 75 -37 34 -20 140 -69
148 -69 5 0 15 -7 22 -15 7 -8 23 -15 35 -15 12 0 28 -6 34 -14 7 -8 24 -17
39 -21 15 -4 34 -12 42 -19 8 -8 28 -16 43 -20 16 -4 46 -18 68 -31 21 -14 45
-25 53 -25 7 0 19 -7 26 -15 7 -8 21 -15 32 -15 10 0 36 -9 58 -20 22 -11 48
-20 60 -20 11 0 20 -4 20 -10 0 -5 19 -15 43 -21 23 -7 51 -19 62 -26 11 -7
28 -13 38 -13 10 0 30 -9 44 -20 14 -11 39 -20 54 -20 16 0 29 -3 29 -8 0 -28
-249 -152 -425 -210 -193 -64 -265 -76 -465 -76 -204 0 -280 11 -439 66 -196
67 -335 150 -478 283 -197 183 -314 403 -344 647 -11 88 -7 246 7 282 8 22 36
20 64 -4z m4767 -385 c164 -92 302 -171 307 -176 5 -5 -4 -21 -22 -38 -18 -16
-32 -34 -32 -40 0 -6 -3 -11 -7 -11 -5 0 -32 -22 -61 -48 -29 -26 -63 -55 -75
-64 -12 -9 -35 -28 -52 -40 -16 -13 -41 -29 -55 -36 -14 -6 -33 -16 -42 -22
-10 -5 -26 -15 -35 -20 -10 -6 -29 -15 -43 -20 -14 -6 -37 -17 -52 -25 -14 -8
-35 -15 -46 -15 -11 0 -25 -6 -31 -14 -6 -8 -31 -17 -56 -20 -24 -4 -48 -13
-55 -21 -6 -7 -39 -16 -73 -20 -34 -4 -73 -13 -87 -20 -14 -7 -66 -15 -116
-17 -66 -4 -99 -10 -119 -24 -27 -18 -53 -19 -360 -19 -298 0 -333 2 -363 18
-23 12 -64 20 -135 24 -64 3 -111 11 -126 20 -13 8 -55 17 -95 20 -39 3 -82
12 -95 20 -14 9 -51 17 -82 19 -33 1 -68 10 -81 18 -13 10 -43 16 -74 16 -86
0 -87 19 -4 85 39 31 173 158 298 281 l227 225 47 -6 c26 -3 59 -12 75 -20 16
-8 55 -15 90 -15 34 0 99 -9 145 -20 46 -12 137 -23 203 -26 101 -5 135 -3
220 16 55 12 126 25 157 29 31 4 65 14 76 24 10 9 31 17 45 17 15 0 44 9 64
20 21 11 44 20 51 20 7 0 41 23 75 50 37 30 69 49 79 46 9 -2 151 -79 315
-171z"/>
<path d="M5845 13141 c-81 -50 -117 -127 -123 -267 -5 -113 5 -147 41 -142 20
3 22 10 28 93 3 50 11 109 18 133 16 57 71 112 114 112 50 0 76 10 83 33 16
51 -97 78 -161 38z"/>
<path d="M6030 12969 c-9 -17 -7 -31 9 -69 61 -142 40 -338 -42 -395 -30 -21
-55 -19 -115 11 -61 30 -86 29 -90 -7 -4 -30 35 -82 79 -104 71 -37 193 -7
245 62 81 107 88 312 14 456 -35 68 -78 88 -100 46z"/>
<path d="M6272 12028 c-28 -28 -5 -88 34 -88 33 0 52 39 36 75 -13 27 -49 34
-70 13z"/>
<path d="M16197 12282 c-22 -25 -21 -55 2 -76 40 -37 92 34 55 75 -21 24 -36
24 -57 1z"/>
<path d="M6606 13398 c-25 -35 5 -75 48 -64 29 7 38 38 19 65 -18 27 -48 27
-67 -1z"/>
<path d="M6650 13249 c-14 -26 11 -69 40 -69 20 0 50 25 50 41 0 47 -69 69
-90 28z"/>
<path d="M13783 10872 c-3 -12 -9 -22 -14 -22 -5 0 -9 -4 -9 -10 0 -18 17 -10
30 15 7 14 10 28 6 32 -4 4 -9 -3 -13 -15z"/>
<path d="M2580 5494 c-151 -130 -288 -293 -320 -380 -6 -16 -17 -42 -24 -59
-17 -36 -46 -132 -46 -151 0 -7 -12 -39 -26 -71 -25 -53 -26 -64 -21 -153 4
-56 15 -118 26 -150 11 -30 20 -67 21 -81 0 -15 9 -38 20 -52 11 -14 20 -33
20 -42 0 -29 130 -175 156 -175 4 0 24 -11 43 -24 30 -21 49 -25 121 -27 119
-2 115 -3 149 43 38 52 39 84 2 125 -41 44 -64 54 -110 47 -32 -5 -45 -2 -67
15 -15 11 -31 21 -37 21 -20 0 -62 57 -81 110 -27 75 -30 367 -5 396 9 11 19
41 23 68 3 27 13 57 21 66 8 9 15 21 15 27 0 5 9 18 20 28 11 10 20 24 20 32
0 7 9 22 19 32 11 11 24 29 31 40 6 12 17 21 24 21 7 0 18 11 24 25 6 14 18
25 27 25 8 0 22 11 31 25 9 14 23 25 30 25 8 0 20 11 26 25 6 13 19 27 30 30
29 10 68 69 68 103 0 39 -29 89 -55 96 -11 3 -38 6 -60 5 -35 0 -50 -9 -115
-65z"/>
<path d="M15829 6007 c-30 -21 -234 -189 -764 -631 -236 -197 -264 -223 -270
-260 -13 -65 -1 -75 212 -188 109 -58 317 -169 463 -248 146 -78 303 -163 350
-187 47 -25 123 -67 170 -93 226 -125 257 -140 302 -140 23 0 55 7 71 14 27
15 189 156 402 351 61 56 224 203 363 329 235 213 252 230 252 262 0 53 -39
84 -245 192 -104 55 -323 169 -485 254 -162 86 -371 195 -465 243 -93 49 -183
97 -200 107 -43 26 -114 24 -156 -5z m251 -194 c69 -36 199 -105 290 -153 91
-48 317 -167 503 -265 185 -97 337 -181 337 -185 0 -5 -37 -41 -82 -80 -79
-70 -245 -220 -637 -572 -102 -93 -191 -168 -198 -168 -6 0 -36 13 -65 29
-296 161 -555 301 -763 413 -430 232 -504 273 -504 278 0 3 146 127 326 275
179 149 390 325 470 392 167 141 130 137 323 36z"/>
<path d="M15893 5298 c-180 -179 -203 -206 -203 -234 0 -62 19 -68 302 -92
139 -12 274 -22 299 -22 47 0 69 14 82 53 7 19 -54 172 -149 376 -80 171 -76
172 -331 -81z m282 -88 c32 -72 55 -133 52 -137 -6 -5 -217 9 -326 23 l-44 6
123 123 c68 68 126 122 130 120 3 -2 32 -63 65 -135z"/>
<path d="M14712 4639 c-229 -38 -443 -182 -531 -357 -39 -77 -54 -158 -48
-260 5 -80 10 -102 43 -168 70 -142 215 -261 385 -318 413 -138 885 44 1010
389 31 85 31 236 0 317 -96 248 -375 410 -701 407 -58 -1 -129 -5 -158 -10z
m410 -147 c116 -35 177 -69 238 -132 120 -124 148 -324 65 -466 -68 -116 -233
-224 -400 -260 -94 -21 -253 -23 -340 -5 -74 15 -145 41 -145 52 0 5 -8 9 -17
9 -30 0 -116 56 -159 102 -23 24 -56 75 -75 113 -31 64 -34 77 -34 160 0 82 3
97 33 158 59 119 172 210 326 262 161 54 344 56 508 7z"/>
<path d="M15082 4463 c-7 -12 -17 -34 -22 -50 -8 -23 -8 -25 2 -12 7 9 19 14
25 12 10 -4 9 -12 -3 -36 l-16 -32 25 30 c28 33 41 65 24 62 -5 -1 -13 9 -17
23 l-6 25 -12 -22z"/>
<path d="M14898 4340 c-10 -17 -13 -32 -7 -35 5 -4 14 6 19 21 15 39 8 48 -12
14z"/>
<path d="M15018 4333 c-8 -10 -18 -27 -22 -38 l-6 -20 16 20 c19 24 36 55 31
55 -2 0 -11 -8 -19 -17z"/>
<path d="M14819 4280 c-81 -14 -154 -62 -186 -124 -19 -36 -20 -114 -3 -147
22 -42 71 -99 85 -99 7 0 32 -9 56 -20 125 -56 296 17 329 142 20 73 8 114
-50 173 -42 43 -61 54 -96 60 -24 3 -46 10 -49 16 -7 10 -20 10 -86 -1z m143
-107 c31 -15 58 -60 58 -96 0 -30 -32 -73 -70 -92 -18 -9 -57 -15 -99 -15 -64
0 -73 3 -106 31 -116 102 67 248 217 172z"/>
<path d="M15138 4197 c-22 -13 -34 -27 -30 -33 8 -13 64 -25 56 -13 -3 5 -13
9 -22 9 -12 1 -10 5 8 15 14 8 21 15 15 15 -5 0 -1 7 9 15 30 23 5 18 -36 -8z"/>
<path d="M14468 3953 c-10 -2 -18 -9 -18 -14 0 -6 10 -5 23 2 37 20 36 23 -5
12z"/>
<path d="M14358 3894 c-16 -8 -28 -17 -28 -19 0 -6 52 16 65 27 15 13 -7 9
-37 -8z"/>
<path d="M14635 3886 c-16 -13 -28 -27 -25 -29 3 -3 21 7 39 24 40 35 29 39
-14 5z"/>
<path d="M14768 3853 c-20 -24 -61 -93 -55 -93 3 0 18 20 35 45 16 24 32 42
36 38 3 -3 6 1 6 10 0 21 -3 21 -22 0z"/>
<path d="M14560 3744 c-14 -7 -21 -14 -16 -14 5 0 3 -7 -4 -15 -8 -9 -8 -15
-2 -15 6 0 20 14 32 30 12 17 20 30 18 29 -2 -1 -14 -7 -28 -15z"/>
<path d="M14671 3704 c-17 -25 -31 -47 -31 -50 0 -2 12 -3 28 -3 16 1 20 3 10
6 -16 4 -16 9 8 49 34 58 24 57 -15 -2z"/>
<path d="M13897 3293 c-22 -25 -22 -82 1 -109 24 -29 58 -51 215 -138 76 -42
148 -76 162 -76 27 0 65 42 65 74 0 46 -37 83 -142 141 -57 32 -125 71 -153
88 -64 38 -123 46 -148 20z"/>
<path d="M15067 2812 c-14 -15 -17 -42 -17 -160 0 -149 7 -172 50 -172 33 0
40 33 40 179 0 114 -3 142 -16 155 -20 21 -37 20 -57 -2z"/>
<path d="M13540 3335 c0 -8 -5 -15 -12 -15 -6 0 -8 -3 -5 -6 8 -8 37 14 37 27
0 5 -4 9 -10 9 -5 0 -10 -7 -10 -15z"/>
<path d="M3081 18313 c-19 -8 -68 -61 -104 -113 -67 -96 -128 -160 -155 -160
-11 0 -36 -7 -55 -15 -20 -8 -50 -15 -66 -15 -17 0 -53 -9 -81 -20 -28 -11
-63 -20 -78 -20 -39 0 -143 -38 -168 -62 -12 -10 -27 -39 -34 -63 -17 -61 -1
-104 58 -153 60 -48 90 -68 201 -130 47 -26 61 -48 61 -96 0 -20 9 -62 19 -93
11 -32 22 -87 26 -122 3 -34 18 -87 31 -116 21 -43 33 -56 65 -69 51 -21 75
-20 126 4 27 12 57 38 85 75 24 32 70 89 104 127 66 76 112 99 223 111 29 4
58 11 65 16 6 5 37 12 70 16 81 10 142 47 168 101 19 39 20 47 9 86 -14 44
-62 98 -128 143 -45 30 -125 87 -170 121 -30 23 -33 30 -33 77 0 29 -6 77 -14
107 -7 30 -17 82 -21 115 -11 101 -60 155 -140 154 -27 0 -56 -3 -64 -6z m27
-320 c5 -10 12 -52 15 -94 6 -86 24 -124 80 -166 140 -107 167 -129 167 -135
0 -8 -7 -10 -110 -28 -36 -7 -69 -15 -75 -20 -5 -4 -32 -11 -58 -14 -45 -7
-52 -13 -134 -106 -47 -55 -89 -97 -94 -95 -4 3 -10 20 -14 38 -4 17 -13 51
-21 75 -8 23 -14 63 -14 87 0 46 -28 106 -65 137 -50 44 -99 78 -110 78 -15 0
-28 27 -20 41 3 4 22 11 43 15 79 14 223 54 260 73 35 18 112 102 112 123 0
15 29 8 38 -9z"/>
<path d="M15689 18129 l-29 -31 -2 -481 -3 -482 -91 3 c-136 6 -215 -20 -295
-95 -109 -102 -122 -262 -27 -350 90 -84 286 -93 413 -18 59 34 130 109 160
168 l25 51 0 448 c0 246 3 448 6 448 12 0 202 -116 242 -147 52 -42 82 -98 82
-153 0 -82 87 -121 144 -64 24 24 26 34 26 104 0 143 -66 232 -258 347 -115
69 -196 141 -227 204 -44 86 -112 106 -166 48z"/>
<path d="M18472 17313 c-7 -3 -37 -43 -67 -88 -89 -138 -131 -147 -236 -50
-111 102 -154 128 -219 133 -84 6 -150 -33 -213 -123 -104 -151 -160 -179
-257 -130 -14 8 -64 48 -110 90 -99 89 -145 118 -217 135 -96 22 -196 -12
-270 -93 -84 -91 -109 -183 -64 -231 38 -40 90 -36 130 9 17 20 31 42 31 50 0
8 16 30 35 50 30 29 43 35 79 35 50 0 95 -28 191 -120 71 -67 138 -104 218
-119 137 -25 256 36 360 185 33 48 58 74 70 74 11 0 55 -32 100 -71 101 -89
161 -119 242 -119 117 0 222 78 290 214 43 84 44 109 6 147 -28 28 -65 36 -99
22z"/>
<path d="M5415 17100 c-11 -4 -34 -21 -51 -36 -34 -33 -206 -244 -274 -338
-101 -141 -130 -166 -189 -166 -16 0 -42 -5 -58 -11 -15 -6 -59 -17 -98 -24
-81 -16 -136 -30 -221 -56 -33 -11 -75 -19 -93 -19 -17 0 -46 -7 -62 -16 -17
-8 -61 -22 -97 -29 -187 -39 -229 -60 -263 -129 -34 -70 -20 -153 36 -208 14
-15 58 -45 98 -69 40 -23 104 -64 143 -91 39 -26 74 -48 77 -48 12 0 221 -141
235 -158 6 -9 12 -38 12 -64 0 -27 6 -61 14 -76 7 -15 17 -58 21 -95 4 -38 13
-83 20 -100 7 -18 16 -57 20 -87 4 -30 13 -71 21 -92 7 -21 18 -75 24 -120 11
-80 46 -198 59 -198 4 0 22 -14 41 -32 36 -33 101 -47 153 -34 30 7 102 76
180 171 107 132 180 220 211 257 17 20 51 62 76 92 35 43 53 57 80 62 19 3 51
11 70 19 19 7 60 16 90 20 30 4 71 13 90 21 19 7 60 18 90 23 56 9 155 32 245
56 28 7 70 16 95 20 47 6 104 36 132 70 10 11 25 43 33 70 23 75 3 133 -67
198 -29 27 -66 56 -83 64 -16 9 -34 21 -41 27 -6 6 -22 18 -34 26 -12 8 -61
43 -109 78 -47 35 -95 70 -106 78 -194 141 -195 142 -195 190 0 25 -6 77 -14
117 -8 40 -18 115 -21 167 -4 52 -11 113 -17 135 -5 22 -14 79 -18 128 -7 70
-14 97 -34 128 -45 67 -155 107 -221 79z m59 -262 c3 -18 7 -51 10 -73 3 -22
10 -60 15 -85 6 -25 10 -76 11 -115 0 -38 7 -97 15 -130 7 -34 17 -96 21 -139
7 -76 8 -80 53 -126 42 -44 192 -160 206 -160 3 0 11 -5 18 -11 7 -6 81 -62
166 -125 85 -62 156 -116 158 -118 10 -10 -66 -40 -132 -52 -103 -19 -172 -34
-245 -54 -36 -10 -85 -21 -110 -25 -25 -3 -74 -15 -109 -25 -35 -11 -74 -20
-87 -20 -41 0 -99 -45 -166 -128 -34 -43 -83 -103 -108 -132 -112 -132 -131
-156 -138 -165 -41 -56 -89 -105 -103 -105 -18 0 -29 28 -29 76 0 17 -6 49
-14 70 -7 22 -17 66 -21 99 -4 33 -12 68 -17 79 -5 10 -16 57 -23 105 -7 47
-18 104 -24 126 -5 22 -14 63 -19 90 -14 71 -35 122 -63 152 -22 24 -238 169
-319 214 -52 29 -70 40 -129 83 -50 36 -53 40 -36 52 11 8 33 14 51 14 17 0
51 7 75 16 24 8 71 20 104 25 32 6 64 14 70 19 7 5 44 14 84 20 40 6 80 14 90
20 10 5 42 12 72 16 30 4 65 12 79 19 14 7 48 16 75 19 96 13 137 46 283 226
73 91 152 191 175 223 22 31 44 57 49 57 4 0 9 -15 12 -32z"/>
<path d="M17870 16531 c-77 -25 -124 -68 -164 -147 -31 -62 -35 -133 -8 -156
63 -56 115 -40 156 48 26 56 49 84 69 84 4 0 46 -36 91 -79 69 -67 92 -82 140
-96 64 -19 108 -15 166 15 60 31 134 145 134 207 0 44 -37 83 -80 83 -50 0
-61 -8 -100 -71 -50 -83 -62 -83 -161 11 -40 38 -86 76 -102 85 -38 19 -107
27 -141 16z"/>
<path d="M16846 16484 c-95 -30 -216 -186 -216 -277 0 -54 32 -87 84 -87 51 0
72 19 111 103 28 61 70 97 113 97 15 0 53 -28 110 -83 94 -89 131 -107 218
-107 27 0 67 9 89 19 79 35 166 166 151 226 -10 38 -45 65 -86 65 -40 0 -66
-21 -94 -77 -17 -34 -43 -53 -71 -53 -10 0 -52 32 -94 72 -42 39 -95 80 -119
90 -59 27 -136 31 -196 12z"/>
<path d="M3494 13246 c-118 -63 -184 -115 -310 -240 -117 -116 -190 -217 -261
-361 -70 -141 -143 -393 -143 -496 0 -43 5 -55 29 -80 64 -64 142 -22 156 83
20 160 84 348 162 479 127 213 235 317 505 484 63 39 72 102 23 151 -34 34
-68 30 -161 -20z"/>
<path d="M3759 12852 c-94 -47 -176 -110 -260 -200 -79 -83 -114 -133 -162
-228 -71 -140 -107 -291 -107 -442 0 -77 2 -85 26 -107 39 -36 94 -34 127 4
20 24 25 43 31 124 3 53 18 135 32 184 67 234 184 383 390 498 47 27 91 57 99
69 38 54 -3 136 -67 136 -19 0 -67 -17 -109 -38z"/>
<path d="M17720 12353 c-33 -12 -50 -38 -70 -107 -12 -39 -30 -98 -40 -131
-10 -33 -26 -87 -35 -120 -9 -33 -21 -71 -26 -85 -8 -26 -96 -330 -126 -435
-9 -33 -20 -64 -24 -69 -4 -4 -34 5 -66 20 -52 26 -68 29 -153 29 -75 0 -105
-5 -141 -22 -153 -70 -225 -238 -151 -354 37 -57 56 -73 122 -103 108 -48 240
-42 355 17 108 55 160 141 205 337 4 19 22 82 39 140 17 58 36 121 41 140 12
44 32 111 64 220 14 47 28 97 32 113 3 15 10 27 14 27 4 0 44 -38 89 -85 106
-111 131 -162 131 -270 0 -104 13 -125 76 -125 65 0 98 35 112 120 13 74 8
103 -39 208 -32 70 -91 153 -165 227 -51 53 -87 119 -103 195 -7 30 -17 65
-23 76 -17 36 -74 53 -118 37z"/>
<path d="M16689 10139 l-29 -31 0 -157 c0 -160 -21 -372 -38 -394 -5 -7 -13
-26 -16 -44 -4 -17 -14 -37 -22 -44 -8 -6 -14 -17 -14 -25 0 -23 -143 -160
-190 -181 -25 -12 -65 -40 -89 -63 -38 -37 -42 -46 -37 -74 6 -34 68 -96 97
-96 26 0 135 55 174 87 6 5 27 19 47 31 21 13 61 51 90 85 61 71 73 88 93 137
9 19 20 42 25 50 6 8 12 20 13 25 2 6 12 35 23 65 10 30 22 93 26 140 12 129
21 416 14 443 -19 78 -113 104 -167 46z"/>
<path d="M17315 9478 c-11 -6 -24 -15 -30 -20 -5 -4 -35 -26 -65 -47 -30 -22
-75 -55 -100 -75 -25 -19 -65 -50 -90 -69 -228 -168 -260 -199 -260 -247 0
-41 39 -80 86 -87 43 -5 62 3 129 54 17 13 35 27 40 31 6 4 90 67 188 140 98
73 194 149 213 169 31 32 35 41 29 72 -12 69 -86 110 -140 79z"/>
<path d="M3205 9351 c-20 -6 -95 -44 -157 -80 -18 -10 -82 -47 -143 -81 -60
-35 -166 -95 -235 -135 -69 -39 -146 -84 -172 -99 -26 -14 -54 -36 -63 -48
-26 -38 -18 -113 29 -268 24 -80 67 -226 96 -325 28 -99 58 -199 65 -223 16
-49 17 -48 -60 -55 -67 -7 -134 -37 -185 -83 -61 -56 -84 -106 -85 -186 0 -58
4 -72 30 -109 39 -56 105 -90 188 -96 88 -7 161 16 239 75 73 55 109 117 116
196 5 56 5 56 -148 576 -92 312 -110 377 -110 392 0 7 44 37 98 67 178 100
326 184 399 228 40 23 77 43 82 43 5 0 16 -28 24 -63 9 -35 38 -135 66 -223
43 -140 101 -339 101 -348 0 -2 -27 -6 -60 -9 -194 -21 -329 -203 -261 -354
69 -151 337 -164 465 -23 53 59 86 131 86 187 0 60 -195 763 -260 936 -30 80
-89 124 -145 108z"/>
<path d="M17060 8535 c-19 -7 -48 -14 -65 -14 -16 -1 -43 -8 -59 -16 -15 -8
-34 -15 -41 -15 -22 0 -176 -83 -250 -135 -123 -86 -297 -276 -305 -335 -9
-58 39 -120 91 -120 44 0 63 13 122 88 83 103 209 222 235 222 6 0 15 6 19 13
7 11 60 39 155 81 20 9 47 16 61 16 13 0 40 6 59 14 102 43 358 23 525 -40 41
-16 74 -34 178 -97 10 -7 26 -20 35 -29 25 -28 92 -68 112 -68 35 0 77 29 94
66 16 33 16 38 1 69 -15 31 -111 118 -147 133 -8 3 -17 8 -20 12 -13 17 -166
100 -185 100 -5 1 -28 9 -50 20 -22 11 -53 20 -70 20 -16 0 -55 7 -85 15 -73
20 -359 20 -410 0z"/>
</g>
</svg>
